<svg xmlns="http://www.w3.org/2000/svg" xmlns:xlink="http://www.w3.org/1999/xlink" width="132" zoomAndPan="magnify" viewBox="0 0 98.88 37.5" height="50" preserveAspectRatio="xMidYMid meet" version="1.0"><defs><g/><clipPath id="d4e6f7e750"><path d="M 0.589844 7 L 49 7 L 49 32 L 0.589844 32 Z M 0.589844 7 " clip-rule="nonzero"/></clipPath><clipPath id="9e1a191b5e"><path d="M 78.894531 3.699219 L 85.554688 3.699219 L 85.554688 10.363281 L 78.894531 10.363281 Z M 78.894531 3.699219 " clip-rule="nonzero"/></clipPath></defs><g clip-path="url(#d4e6f7e750)"><path stroke-linecap="butt" transform="matrix(0.740132, 0, 0, 0.740132, 0.995813, 7.773952)" fill="none" stroke-linejoin="miter" d="M 6.523713 20.999584 L 9.917324 20.999584 L 9.917324 16.349861 L 12.155102 16.349861 L 14.82038 20.999584 L 18.747046 20.999584 L 15.654268 15.816806 C 17.443435 15.025139 18.493713 13.404861 18.493713 11.209306 C 18.493713 8.032083 16.313991 6.06875 12.904546 6.06875 L 6.523713 6.06875 Z M 9.875102 13.489306 L 9.875102 8.971528 L 12.455935 8.971528 C 14.118435 8.971528 15.05788 9.784306 15.05788 11.230417 C 15.05788 12.681806 14.118435 13.489306 12.455935 13.489306 Z M 25.808713 21.295139 C 28.558436 21.295139 30.73288 19.89125 31.714547 17.521528 L 28.431769 17.521528 C 27.898713 18.270973 26.938158 18.698473 25.866769 18.698473 C 24.399547 18.698473 23.248991 17.864584 22.948158 16.32875 L 31.930936 16.32875 C 32.120936 12.233195 29.693158 9.499306 25.845658 9.499306 C 22.225102 9.499306 19.728713 11.91125 19.728713 15.389306 C 19.728713 18.883195 22.203991 21.295139 25.808713 21.295139 Z M 22.969269 14.280972 C 23.333435 12.919306 24.441769 12.085417 25.866769 12.085417 C 27.365658 12.085417 28.431769 12.919306 28.795936 14.280972 Z M 38.834269 21.295139 C 41.995658 21.295139 44.360103 19.442639 44.96177 16.502917 L 41.805658 16.502917 C 41.357047 17.711528 40.248714 18.503195 38.876492 18.503195 C 37.134825 18.503195 35.915658 17.225973 35.915658 15.389306 C 35.915658 13.552639 37.134825 12.275417 38.876492 12.275417 C 40.158992 12.275417 41.203992 12.961528 41.737047 14.090972 L 44.850936 14.090972 C 44.338992 11.314861 41.953436 9.499306 38.834269 9.499306 C 35.255936 9.499306 32.717325 11.953472 32.717325 15.389306 C 32.717325 18.84625 35.234825 21.295139 38.834269 21.295139 Z M 46.555659 25.264028 L 48.070381 25.264028 C 50.677603 25.264028 51.764826 24.625417 52.677881 22.324306 L 57.670659 9.805417 L 54.197881 9.805417 L 52.698992 13.874584 L 51.680381 16.735139 L 48.672048 9.805417 L 45.088436 9.805417 L 50.123437 20.635417 L 49.991492 21.020695 C 49.606214 22.129028 49.157603 22.472084 47.838159 22.472084 L 46.555659 22.472084 Z M 46.555659 25.264028 " stroke="#808080" stroke-width="1.226665" stroke-opacity="1" stroke-miterlimit="4"/></g><g fill="#ffffff" fill-opacity="1"><g transform="translate(4.499874, 23.316714)"><g><path d="M 1.324219 0 L 3.835938 0 L 3.835938 -3.441406 L 5.492188 -3.441406 L 7.46875 0 L 10.371094 0 L 8.082031 -3.835938 C 9.410156 -4.421875 10.183594 -5.621094 10.183594 -7.246094 C 10.183594 -9.597656 8.574219 -11.050781 6.046875 -11.050781 L 1.324219 -11.050781 Z M 3.804688 -5.558594 L 3.804688 -8.902344 L 5.714844 -8.902344 C 6.945312 -8.902344 7.640625 -8.304688 7.640625 -7.230469 C 7.640625 -6.15625 6.945312 -5.558594 5.714844 -5.558594 Z M 3.804688 -5.558594 "/></g></g></g><g fill="#ffffff" fill-opacity="1"><g transform="translate(14.981416, 23.316714)"><g><path d="M 5.113281 0.222656 C 7.152344 0.222656 8.761719 -0.820312 9.488281 -2.574219 L 7.058594 -2.574219 C 6.664062 -2.019531 5.953125 -1.703125 5.164062 -1.703125 C 4.074219 -1.703125 3.21875 -2.320312 3 -3.457031 L 9.644531 -3.457031 C 9.789062 -6.488281 7.988281 -8.507812 5.148438 -8.507812 C 2.460938 -8.507812 0.617188 -6.726562 0.617188 -4.152344 C 0.617188 -1.5625 2.445312 0.222656 5.113281 0.222656 Z M 3.015625 -4.972656 C 3.285156 -5.984375 4.105469 -6.597656 5.164062 -6.597656 C 6.265625 -6.597656 7.058594 -5.984375 7.324219 -4.972656 Z M 3.015625 -4.972656 "/></g></g></g><g fill="#ffffff" fill-opacity="1"><g transform="translate(24.594747, 23.316714)"><g><path d="M 5.148438 0.222656 C 7.484375 0.222656 9.234375 -1.152344 9.675781 -3.332031 L 7.339844 -3.332031 C 7.007812 -2.429688 6.1875 -1.847656 5.179688 -1.847656 C 3.882812 -1.847656 2.984375 -2.792969 2.984375 -4.152344 C 2.984375 -5.507812 3.882812 -6.457031 5.179688 -6.457031 C 6.125 -6.457031 6.898438 -5.953125 7.292969 -5.113281 L 9.597656 -5.113281 C 9.21875 -7.167969 7.453125 -8.507812 5.148438 -8.507812 C 2.496094 -8.507812 0.617188 -6.695312 0.617188 -4.152344 C 0.617188 -1.59375 2.480469 0.222656 5.148438 0.222656 Z M 5.148438 0.222656 "/></g></g></g><g fill="#ffffff" fill-opacity="1"><g transform="translate(34.223867, 23.316714)"><g><path d="M 1.230469 3.15625 L 2.351562 3.15625 C 4.277344 3.15625 5.082031 2.683594 5.761719 0.980469 L 9.457031 -8.289062 L 6.882812 -8.289062 L 5.777344 -5.273438 L 5.019531 -3.15625 L 2.792969 -8.289062 L 0.140625 -8.289062 L 3.867188 -0.269531 L 3.773438 0.015625 C 3.488281 0.835938 3.15625 1.089844 2.179688 1.089844 L 1.230469 1.089844 Z M 1.230469 3.15625 "/></g></g></g><path stroke-linecap="butt" transform="matrix(0.740132, 0, 0, 0.740132, 44.851102, 7.773952)" fill="none" stroke-linejoin="miter" d="M 6.951456 21.295139 C 10.112845 21.295139 12.47729 19.442639 13.073679 16.502917 L 9.922845 16.502917 C 9.474234 17.711528 8.365901 18.503195 6.993678 18.503195 C 5.246734 18.503195 4.032845 17.225973 4.032845 15.389306 C 4.032845 13.552639 5.246734 12.275417 6.993678 12.275417 C 8.276178 12.275417 9.321178 12.961528 9.854234 14.090972 L 12.968123 14.090972 C 12.456178 11.314861 10.065345 9.499306 6.951456 9.499306 C 3.367845 9.499306 0.834511 11.953472 0.834511 15.389306 C 0.834511 18.84625 3.346734 21.295139 6.951456 21.295139 Z M 18.362012 21.215973 C 20.02979 21.215973 21.396734 20.682917 22.352012 19.695973 L 22.716179 20.999584 L 25.128123 20.999584 L 25.128123 14.259861 C 25.128123 11.29375 23.122568 9.499306 19.771179 9.499306 C 16.915901 9.499306 15.037012 10.86625 14.630623 13.299306 L 17.744512 13.299306 C 17.934512 12.512917 18.74729 11.974583 19.797568 11.974583 C 21.069512 11.974583 21.945623 12.702917 21.945623 13.81125 L 21.945623 14.323195 L 17.89229 14.323195 C 15.570067 14.323195 14.076456 15.669028 14.076456 17.732639 C 14.076456 19.89125 15.717845 21.215973 18.362012 21.215973 Z M 17.27479 17.61125 C 17.27479 16.840695 17.913401 16.349861 18.895068 16.349861 L 21.966734 16.349861 C 21.903401 17.864584 20.731734 18.883195 19.106179 18.883195 C 17.997845 18.883195 17.27479 18.376528 17.27479 17.61125 Z M 31.609235 21.295139 C 34.633402 21.295139 36.475346 19.975695 36.475346 17.843473 C 36.475346 16.012084 35.103124 14.835139 32.33229 14.280972 C 30.411179 13.895695 29.820068 13.579028 29.820068 12.898195 C 29.820068 12.233195 30.411179 11.847917 31.377013 11.847917 C 32.464235 11.847917 33.123957 12.33875 33.18729 13.19375 L 36.280068 13.19375 C 36.132291 10.824028 34.380068 9.499306 31.398124 9.499306 C 28.384512 9.499306 26.685068 10.718472 26.685068 12.898195 C 26.685068 14.750695 27.96229 15.859028 30.817568 16.370973 C 32.548679 16.671806 33.271735 17.120417 33.271735 17.822362 C 33.271735 18.487362 32.670068 18.883195 31.651457 18.883195 C 30.458679 18.883195 29.730346 18.313195 29.709235 17.394861 L 26.532012 17.394861 C 26.532012 19.738195 28.537568 21.295139 31.609235 21.295139 Z M 38.111457 20.999584 L 41.357291 20.999584 L 41.357291 15.114861 C 41.357291 13.346806 42.33368 12.275417 43.827291 12.275417 C 45.215347 12.275417 46.049235 13.214861 46.049235 14.85625 L 46.049235 20.999584 L 49.289791 20.999584 L 49.289791 14.539584 C 49.289791 11.425695 47.542847 9.499306 44.640069 9.499306 C 43.383958 9.499306 42.212291 9.884583 41.357291 10.655139 L 41.357291 5.21375 L 38.111457 5.21375 Z M 38.111457 20.999584 " stroke="#ffffff" stroke-width="1.226665" stroke-opacity="1" stroke-miterlimit="4"/><g fill="#008000" fill-opacity="1"><g transform="translate(44.851102, 23.316714)"><g><path d="M 5.148438 0.222656 C 7.484375 0.222656 9.234375 -1.152344 9.675781 -3.332031 L 7.339844 -3.332031 C 7.007812 -2.429688 6.1875 -1.847656 5.179688 -1.847656 C 3.882812 -1.847656 2.984375 -2.792969 2.984375 -4.152344 C 2.984375 -5.507812 3.882812 -6.457031 5.179688 -6.457031 C 6.125 -6.457031 6.898438 -5.953125 7.292969 -5.113281 L 9.597656 -5.113281 C 9.21875 -7.167969 7.453125 -8.507812 5.148438 -8.507812 C 2.496094 -8.507812 0.617188 -6.695312 0.617188 -4.152344 C 0.617188 -1.59375 2.480469 0.222656 5.148438 0.222656 Z M 5.148438 0.222656 "/></g></g></g><g fill="#008000" fill-opacity="1"><g transform="translate(54.480221, 23.316714)"><g><path d="M 3.960938 0.15625 C 5.195312 0.15625 6.203125 -0.238281 6.914062 -0.964844 L 7.183594 0 L 8.96875 0 L 8.96875 -4.988281 C 8.96875 -7.183594 7.484375 -8.507812 5.003906 -8.507812 C 2.890625 -8.507812 1.5 -7.5 1.199219 -5.699219 L 3.503906 -5.699219 C 3.648438 -6.285156 4.246094 -6.679688 5.019531 -6.679688 C 5.96875 -6.679688 6.613281 -6.140625 6.613281 -5.320312 L 6.613281 -4.941406 L 3.613281 -4.941406 C 1.894531 -4.941406 0.789062 -3.945312 0.789062 -2.414062 C 0.789062 -0.820312 2.003906 0.15625 3.960938 0.15625 Z M 3.15625 -2.511719 C 3.15625 -3.078125 3.632812 -3.441406 4.355469 -3.441406 L 6.628906 -3.441406 C 6.582031 -2.320312 5.714844 -1.5625 4.515625 -1.5625 C 3.695312 -1.5625 3.15625 -1.941406 3.15625 -2.511719 Z M 3.15625 -2.511719 "/></g></g></g><g fill="#008000" fill-opacity="1"><g transform="translate(63.856761, 23.316714)"><g><path d="M 4.390625 0.222656 C 6.628906 0.222656 7.988281 -0.757812 7.988281 -2.335938 C 7.988281 -3.695312 6.976562 -4.5625 4.925781 -4.972656 C 3.503906 -5.257812 3.0625 -5.492188 3.0625 -6 C 3.0625 -6.488281 3.503906 -6.773438 4.214844 -6.773438 C 5.019531 -6.773438 5.507812 -6.410156 5.558594 -5.777344 L 7.847656 -5.777344 C 7.734375 -7.53125 6.441406 -8.507812 4.230469 -8.507812 C 2.003906 -8.507812 0.742188 -7.609375 0.742188 -6 C 0.742188 -4.625 1.6875 -3.804688 3.804688 -3.425781 C 5.082031 -3.203125 5.621094 -2.875 5.621094 -2.351562 C 5.621094 -1.863281 5.179688 -1.5625 4.421875 -1.5625 C 3.535156 -1.5625 3 -1.988281 2.984375 -2.667969 L 0.632812 -2.667969 C 0.632812 -0.929688 2.117188 0.222656 4.390625 0.222656 Z M 4.390625 0.222656 "/></g></g></g><g fill="#008000" fill-opacity="1"><g transform="translate(71.859954, 23.316714)"><g><path d="M 1.199219 0 L 3.597656 0 L 3.597656 -4.355469 C 3.597656 -5.667969 4.324219 -6.457031 5.429688 -6.457031 C 6.457031 -6.457031 7.074219 -5.761719 7.074219 -4.546875 L 7.074219 0 L 9.472656 0 L 9.472656 -4.785156 C 9.472656 -7.089844 8.175781 -8.507812 6.03125 -8.507812 C 5.097656 -8.507812 4.230469 -8.226562 3.597656 -7.65625 L 3.597656 -11.683594 L 1.199219 -11.683594 Z M 1.199219 0 "/></g></g></g><g clip-path="url(#9e1a191b5e)"><path fill="#ffffff" d="M 82.265625 3.699219 C 82.710938 3.699219 83.140625 3.785156 83.554688 3.957031 C 83.96875 4.128906 84.332031 4.371094 84.648438 4.6875 C 84.964844 5.003906 85.207031 5.367188 85.378906 5.78125 C 85.550781 6.195312 85.636719 6.625 85.636719 7.070312 C 85.636719 7.519531 85.550781 7.949219 85.378906 8.363281 C 85.207031 8.773438 84.964844 9.140625 84.648438 9.457031 C 84.332031 9.773438 83.96875 10.015625 83.554688 10.1875 C 83.140625 10.355469 82.710938 10.441406 82.265625 10.441406 C 81.816406 10.441406 81.386719 10.355469 80.972656 10.1875 C 80.5625 10.015625 80.195312 9.773438 79.878906 9.457031 C 79.5625 9.140625 79.320312 8.773438 79.148438 8.363281 C 78.980469 7.949219 78.894531 7.519531 78.894531 7.070312 C 78.894531 6.625 78.980469 6.195312 79.148438 5.78125 C 79.320312 5.367188 79.5625 5.003906 79.878906 4.6875 C 80.195312 4.371094 80.5625 4.128906 80.972656 3.957031 C 81.386719 3.785156 81.816406 3.699219 82.265625 3.699219 Z M 83.976562 6.945312 L 83.976562 6.941406 C 83.976562 6.828125 83.917969 6.773438 83.808594 6.773438 L 83.632812 6.773438 C 83.636719 6.742188 83.640625 6.710938 83.640625 6.683594 C 83.644531 6.652344 83.644531 6.621094 83.644531 6.585938 C 83.644531 6.574219 83.644531 6.558594 83.640625 6.546875 L 83.640625 6.5 L 83.808594 6.5 C 83.917969 6.5 83.976562 6.445312 83.976562 6.332031 L 83.976562 6.328125 C 83.976562 6.214844 83.917969 6.160156 83.808594 6.160156 L 83.59375 6.160156 C 83.523438 5.886719 83.375 5.671875 83.136719 5.515625 C 82.910156 5.363281 82.609375 5.289062 82.230469 5.289062 C 82.011719 5.289062 81.792969 5.289062 81.570312 5.289062 C 81.40625 5.289062 81.265625 5.347656 81.152344 5.460938 C 81.035156 5.578125 80.976562 5.71875 80.976562 5.882812 L 80.976562 6.160156 L 80.722656 6.160156 C 80.609375 6.160156 80.554688 6.214844 80.554688 6.328125 C 80.554688 6.441406 80.609375 6.5 80.722656 6.5 L 80.976562 6.5 L 80.976562 6.773438 L 80.722656 6.773438 C 80.609375 6.773438 80.554688 6.828125 80.554688 6.941406 C 80.554688 7.054688 80.609375 7.113281 80.722656 7.113281 L 80.976562 7.113281 L 80.976562 8.464844 C 80.976562 8.574219 81.015625 8.664062 81.089844 8.742188 C 81.167969 8.816406 81.257812 8.855469 81.367188 8.855469 C 81.476562 8.855469 81.566406 8.816406 81.644531 8.742188 C 81.71875 8.664062 81.757812 8.574219 81.757812 8.464844 L 81.757812 7.949219 L 82.199219 7.949219 C 82.355469 7.953125 82.511719 7.933594 82.667969 7.898438 C 82.804688 7.867188 82.9375 7.8125 83.058594 7.742188 C 83.175781 7.671875 83.277344 7.582031 83.363281 7.476562 C 83.449219 7.367188 83.515625 7.246094 83.5625 7.113281 L 83.808594 7.113281 C 83.917969 7.113281 83.976562 7.058594 83.976562 6.945312 Z M 83.976562 6.945312 " fill-opacity="1" fill-rule="nonzero"/></g><path fill="#ffffff" d="M 82.855469 6.535156 C 82.859375 6.554688 82.859375 6.570312 82.859375 6.589844 C 82.859375 6.625 82.859375 6.660156 82.855469 6.695312 C 82.855469 6.726562 82.851562 6.757812 82.847656 6.792969 L 81.753906 6.792969 L 81.753906 6.480469 C 82.121094 6.480469 82.488281 6.480469 82.855469 6.480469 C 82.855469 6.5 82.855469 6.515625 82.855469 6.535156 Z M 82.855469 6.535156 " fill-opacity="1" fill-rule="nonzero"/><path fill="#ffffff" d="M 82.765625 6.160156 L 81.753906 6.160156 L 81.753906 5.847656 C 81.808594 5.847656 81.867188 5.847656 81.925781 5.847656 C 82 5.847656 82.078125 5.851562 82.160156 5.859375 C 82.242188 5.863281 82.320312 5.875 82.398438 5.898438 C 82.476562 5.917969 82.546875 5.949219 82.613281 5.992188 C 82.679688 6.035156 82.730469 6.089844 82.765625 6.160156 Z M 82.765625 6.160156 " fill-opacity="1" fill-rule="nonzero"/><path fill="#ffffff" d="M 81.753906 7.113281 L 82.742188 7.113281 C 82.703125 7.179688 82.65625 7.234375 82.59375 7.277344 C 82.539062 7.320312 82.472656 7.351562 82.40625 7.375 C 82.332031 7.394531 82.257812 7.410156 82.179688 7.414062 C 82.097656 7.421875 82.015625 7.421875 81.925781 7.421875 C 81.867188 7.421875 81.808594 7.421875 81.753906 7.421875 Z M 81.753906 7.113281 " fill-opacity="1" fill-rule="nonzero"/></svg>