<svg xmlns="http://www.w3.org/2000/svg" xmlns:xlink="http://www.w3.org/1999/xlink" width="300" zoomAndPan="magnify" viewBox="0 0 224.87999 112.499997" height="150" preserveAspectRatio="xMidYMid meet" version="1.0"><defs><g/><clipPath id="6dff160ac6"><path d="M 0.4375 0 L 224.324219 0 L 224.324219 112.003906 L 0.4375 112.003906 Z M 0.4375 0 " clip-rule="nonzero"/></clipPath><clipPath id="3452e7d157"><path d="M 191.4375 26.539062 L 205.625 26.539062 L 205.625 40.726562 L 191.4375 40.726562 Z M 191.4375 26.539062 " clip-rule="nonzero"/></clipPath></defs><g clip-path="url(#6dff160ac6)"><path fill="#ffffff" d="M 0.4375 0 L 224.441406 0 L 224.441406 112.003906 L 0.4375 112.003906 Z M 0.4375 0 " fill-opacity="1" fill-rule="nonzero"/><path fill="#0ca678" d="M 0.4375 0 L 224.441406 0 L 224.441406 112.003906 L 0.4375 112.003906 Z M 0.4375 0 " fill-opacity="1" fill-rule="nonzero"/></g><g clip-path="url(#3452e7d157)"><path fill="#ffffff" d="M 198.601562 26.539062 C 199.074219 26.539062 199.539062 26.585938 200 26.679688 C 200.460938 26.769531 200.910156 26.90625 201.34375 27.085938 C 201.777344 27.265625 202.191406 27.488281 202.582031 27.746094 C 202.972656 28.007812 203.335938 28.304688 203.667969 28.640625 C 204 28.972656 204.296875 29.332031 204.558594 29.722656 C 204.820312 30.117188 205.039062 30.527344 205.21875 30.960938 C 205.402344 31.398438 205.535156 31.84375 205.628906 32.304688 C 205.71875 32.769531 205.765625 33.234375 205.765625 33.703125 C 205.765625 34.175781 205.71875 34.640625 205.628906 35.101562 C 205.535156 35.5625 205.402344 36.011719 205.21875 36.445312 C 205.039062 36.878906 204.820312 37.292969 204.558594 37.683594 C 204.296875 38.074219 204 38.4375 203.667969 38.769531 C 203.335938 39.101562 202.972656 39.398438 202.582031 39.660156 C 202.191406 39.921875 201.777344 40.140625 201.34375 40.324219 C 200.910156 40.503906 200.460938 40.636719 200 40.730469 C 199.539062 40.820312 199.074219 40.867188 198.601562 40.867188 C 198.132812 40.867188 197.667969 40.820312 197.203125 40.730469 C 196.742188 40.636719 196.296875 40.503906 195.859375 40.324219 C 195.425781 40.140625 195.011719 39.921875 194.621094 39.660156 C 194.230469 39.398438 193.871094 39.101562 193.535156 38.769531 C 193.203125 38.4375 192.90625 38.074219 192.644531 37.683594 C 192.382812 37.292969 192.164062 36.878906 191.984375 36.445312 C 191.804688 36.011719 191.667969 35.5625 191.578125 35.101562 C 191.484375 34.640625 191.4375 34.175781 191.4375 33.703125 C 191.4375 33.234375 191.484375 32.769531 191.578125 32.304688 C 191.667969 31.84375 191.804688 31.398438 191.984375 30.960938 C 192.164062 30.527344 192.382812 30.117188 192.644531 29.722656 C 192.90625 29.332031 193.203125 28.972656 193.535156 28.640625 C 193.871094 28.304688 194.230469 28.007812 194.621094 27.746094 C 195.011719 27.488281 195.425781 27.265625 195.859375 27.085938 C 196.296875 26.90625 196.742188 26.769531 197.203125 26.679688 C 197.667969 26.585938 198.132812 26.539062 198.601562 26.539062 Z M 202.238281 33.433594 L 202.238281 33.425781 C 202.238281 33.328125 202.203125 33.242188 202.132812 33.171875 C 202.0625 33.101562 201.980469 33.066406 201.878906 33.066406 L 201.515625 33.066406 C 201.519531 33.003906 201.527344 32.941406 201.53125 32.875 C 201.53125 32.808594 201.535156 32.742188 201.535156 32.675781 C 201.535156 32.644531 201.53125 32.613281 201.53125 32.585938 L 201.53125 32.488281 L 201.878906 32.488281 C 201.980469 32.488281 202.0625 32.453125 202.132812 32.382812 C 202.203125 32.3125 202.238281 32.230469 202.238281 32.132812 L 202.238281 32.125 C 202.238281 32.023438 202.203125 31.941406 202.132812 31.871094 C 202.0625 31.800781 201.980469 31.765625 201.878906 31.765625 L 201.425781 31.765625 C 201.28125 31.183594 200.960938 30.726562 200.457031 30.398438 C 199.976562 30.074219 199.332031 29.914062 198.53125 29.914062 C 198.0625 29.914062 197.597656 29.914062 197.128906 29.914062 C 196.960938 29.914062 196.800781 29.945312 196.644531 30.011719 C 196.492188 30.074219 196.355469 30.164062 196.234375 30.285156 C 196.117188 30.402344 196.027344 30.539062 195.960938 30.695312 C 195.898438 30.847656 195.867188 31.011719 195.867188 31.175781 L 195.867188 31.765625 L 195.328125 31.765625 C 195.226562 31.765625 195.140625 31.800781 195.070312 31.871094 C 195 31.941406 194.964844 32.027344 194.964844 32.128906 C 194.964844 32.226562 195 32.3125 195.070312 32.382812 C 195.140625 32.453125 195.226562 32.488281 195.328125 32.488281 L 195.867188 32.488281 L 195.867188 33.066406 L 195.328125 33.066406 C 195.226562 33.066406 195.140625 33.101562 195.070312 33.175781 C 195 33.246094 194.964844 33.328125 194.964844 33.429688 C 194.964844 33.53125 195 33.617188 195.070312 33.6875 C 195.140625 33.757812 195.226562 33.792969 195.328125 33.792969 L 195.867188 33.792969 L 195.867188 36.664062 C 195.867188 36.894531 195.945312 37.089844 196.109375 37.25 C 196.269531 37.414062 196.464844 37.496094 196.695312 37.496094 C 196.925781 37.496094 197.121094 37.414062 197.28125 37.25 C 197.445312 37.089844 197.527344 36.894531 197.527344 36.664062 L 197.527344 35.574219 L 198.460938 35.574219 C 198.796875 35.574219 199.128906 35.539062 199.457031 35.460938 C 199.753906 35.390625 200.03125 35.277344 200.292969 35.125 C 200.539062 34.976562 200.753906 34.789062 200.9375 34.566406 C 201.125 34.335938 201.265625 34.074219 201.359375 33.792969 L 201.878906 33.792969 C 201.980469 33.792969 202.0625 33.757812 202.132812 33.6875 C 202.203125 33.617188 202.238281 33.53125 202.238281 33.433594 Z M 202.238281 33.433594 " fill-opacity="1" fill-rule="nonzero"/></g><path fill="#ffffff" d="M 199.859375 32.566406 C 199.863281 32.601562 199.863281 32.640625 199.863281 32.679688 C 199.863281 32.757812 199.863281 32.832031 199.859375 32.902344 C 199.855469 32.972656 199.851562 33.039062 199.839844 33.109375 L 197.515625 33.109375 L 197.515625 32.449219 C 198.296875 32.449219 199.074219 32.449219 199.855469 32.449219 C 199.859375 32.484375 199.859375 32.523438 199.859375 32.566406 Z M 199.859375 32.566406 " fill-opacity="1" fill-rule="nonzero"/><path fill="#ffffff" d="M 199.667969 31.765625 L 197.515625 31.765625 L 197.515625 31.105469 C 197.636719 31.105469 197.761719 31.105469 197.882812 31.105469 C 198.039062 31.105469 198.207031 31.113281 198.382812 31.125 C 198.554688 31.136719 198.722656 31.164062 198.890625 31.210938 C 199.050781 31.253906 199.199219 31.320312 199.339844 31.40625 C 199.484375 31.496094 199.589844 31.617188 199.667969 31.765625 Z M 199.667969 31.765625 " fill-opacity="1" fill-rule="nonzero"/><path fill="#ffffff" d="M 197.515625 33.792969 L 199.617188 33.792969 C 199.539062 33.929688 199.433594 34.046875 199.304688 34.144531 C 199.183594 34.234375 199.050781 34.300781 198.902344 34.34375 C 198.746094 34.390625 198.585938 34.417969 198.421875 34.429688 C 198.25 34.445312 198.070312 34.449219 197.882812 34.449219 C 197.761719 34.453125 197.636719 34.453125 197.515625 34.449219 Z M 197.515625 33.792969 " fill-opacity="1" fill-rule="nonzero"/><path stroke-linecap="butt" transform="matrix(0.473212, 0, 0, 0.473212, -18.412809, 29.977169)" fill="none" stroke-linejoin="miter" d="M 87.03548 82.001447 L 99.557942 82.001447 L 99.557942 64.831558 L 107.820951 64.831558 L 117.668873 82.001447 L 132.164221 82.001447 L 120.747896 62.866926 C 127.359954 59.944743 131.223179 53.968301 131.223179 45.853878 C 131.223179 34.123872 123.183049 26.867943 110.594548 26.867943 L 87.03548 26.867943 Z M 99.401102 54.273727 L 99.401102 37.582614 L 108.935343 37.582614 C 115.068625 37.582614 118.535622 40.57909 118.535622 45.928171 C 118.535622 51.293761 115.068625 54.273727 108.935343 54.273727 Z M 158.224481 83.099329 C 168.377829 83.099329 176.417959 77.907089 180.050051 69.157049 L 167.915562 69.157049 C 165.959186 71.922392 162.401387 73.49905 158.455614 73.49905 C 153.03224 73.49905 148.789297 70.428281 147.674905 64.74901 L 180.842508 64.74901 C 181.552417 49.634555 172.571244 39.547246 158.381321 39.547246 C 145.000364 39.547246 135.788059 48.445871 135.788059 61.290268 C 135.788059 74.192449 144.917817 83.099329 158.224481 83.099329 Z M 147.749198 57.19591 C 149.094723 52.16051 153.189081 49.081487 158.455614 49.081487 C 163.978045 49.081487 167.915562 52.16051 169.261087 57.19591 Z M 206.341444 83.099329 C 218.013666 83.099329 226.738942 76.247883 228.951216 65.384627 L 217.303758 65.384627 C 215.644552 69.866958 211.550194 72.789141 206.490029 72.789141 C 200.051321 72.789141 195.55248 68.059167 195.55248 61.290268 C 195.55248 54.50486 200.051321 49.791396 206.490029 49.791396 C 211.220004 49.791396 215.091483 52.309096 217.04786 56.486001 L 228.546733 56.486001 C 226.664649 46.233597 217.840317 39.547246 206.341444 39.547246 C 193.109073 39.547246 183.748181 48.602711 183.748181 61.290268 C 183.748181 74.035609 193.03478 83.099329 206.341444 83.099329 Z M 234.836856 97.751518 L 240.433579 97.751518 C 250.050368 97.751518 254.070433 95.382404 257.454883 86.880007 L 275.871239 40.661637 L 263.051606 40.661637 L 257.529175 55.693545 L 253.765007 66.251376 L 242.645853 40.661637 L 229.421737 40.661637 L 248.011444 80.655922 L 247.532668 82.07574 C 246.104595 86.170098 244.453644 87.44133 239.56683 87.44133 L 234.836856 87.44133 Z M 234.836856 97.751518 " stroke="#808080" stroke-width="4.528711" stroke-opacity="1" stroke-miterlimit="4"/><g fill="#ffffff" fill-opacity="1"><g transform="translate(19.643799, 68.780565)"><g><path d="M 3.128906 0 L 9.058594 0 L 9.058594 -8.125 L 12.96875 -8.125 L 17.628906 0 L 24.488281 0 L 19.082031 -9.058594 C 22.214844 -10.4375 24.039062 -13.269531 24.039062 -17.105469 C 24.039062 -22.660156 20.238281 -26.089844 14.273438 -26.089844 L 3.128906 -26.089844 Z M 8.980469 -13.117188 L 8.980469 -21.019531 L 13.492188 -21.019531 C 16.398438 -21.019531 18.039062 -19.605469 18.039062 -17.070312 C 18.039062 -14.535156 16.398438 -13.117188 13.492188 -13.117188 Z M 8.980469 -13.117188 "/></g></g></g><g fill="#ffffff" fill-opacity="1"><g transform="translate(44.387834, 68.780565)"><g><path d="M 12.074219 0.523438 C 16.882812 0.523438 20.683594 -1.9375 22.398438 -6.074219 L 16.660156 -6.074219 C 15.726562 -4.769531 14.050781 -4.023438 12.1875 -4.023438 C 9.617188 -4.023438 7.601562 -5.480469 7.082031 -8.164062 L 22.773438 -8.164062 C 23.109375 -15.316406 18.859375 -20.089844 12.148438 -20.089844 C 5.8125 -20.089844 1.453125 -15.878906 1.453125 -9.800781 C 1.453125 -3.691406 5.777344 0.523438 12.074219 0.523438 Z M 7.117188 -11.738281 C 7.753906 -14.125 9.691406 -15.578125 12.1875 -15.578125 C 14.796875 -15.578125 16.660156 -14.125 17.292969 -11.738281 Z M 7.117188 -11.738281 "/></g></g></g><g fill="#ffffff" fill-opacity="1"><g transform="translate(67.082274, 68.780565)"><g><path d="M 12.148438 0.523438 C 17.667969 0.523438 21.804688 -2.722656 22.847656 -7.863281 L 17.332031 -7.863281 C 16.546875 -5.738281 14.609375 -4.359375 12.226562 -4.359375 C 9.167969 -4.359375 7.042969 -6.597656 7.042969 -9.800781 C 7.042969 -13.007812 9.167969 -15.242188 12.226562 -15.242188 C 14.460938 -15.242188 16.285156 -14.050781 17.21875 -12.074219 L 22.660156 -12.074219 C 21.765625 -16.921875 17.589844 -20.089844 12.148438 -20.089844 C 5.890625 -20.089844 1.453125 -15.800781 1.453125 -9.800781 C 1.453125 -3.765625 5.851562 0.523438 12.148438 0.523438 Z M 12.148438 0.523438 "/></g></g></g><g fill="#ffffff" fill-opacity="1"><g transform="translate(89.813977, 68.780565)"><g><path d="M 2.90625 7.453125 L 5.554688 7.453125 C 10.101562 7.453125 12 6.335938 13.605469 2.3125 L 22.324219 -19.566406 L 16.25 -19.566406 L 13.640625 -12.449219 L 11.851562 -7.453125 L 6.597656 -19.566406 L 0.335938 -19.566406 L 9.132812 -0.632812 L 8.90625 0.0390625 C 8.238281 1.976562 7.453125 2.570312 5.144531 2.570312 L 2.90625 2.570312 Z M 2.90625 7.453125 "/></g></g></g><path stroke-linecap="butt" transform="matrix(0.473212, 0, 0, 0.473212, 112.43999, 29.977169)" fill="none" stroke-linejoin="miter" d="M 25.667023 83.099329 C 37.339246 83.099329 46.072776 76.247883 48.28505 65.384627 L 36.629337 65.384627 C 34.978386 69.866958 30.884028 72.789141 25.823864 72.789141 C 19.385155 72.789141 14.886314 68.059167 14.886314 61.290268 C 14.886314 54.50486 19.385155 49.791396 25.823864 49.791396 C 30.553838 49.791396 34.417063 52.309096 36.381694 56.486001 L 47.880567 56.486001 C 45.998483 46.233597 37.165896 39.547246 25.667023 39.547246 C 12.442907 39.547246 3.073761 48.602711 3.073761 61.290268 C 3.073761 74.035609 12.360359 83.099329 25.667023 83.099329 Z M 67.807544 82.785649 C 73.957336 82.785649 78.992736 80.829272 82.534026 77.188925 L 83.879551 82.001447 L 92.778176 82.001447 L 92.778176 57.121617 C 92.778176 46.159304 85.381916 39.547246 72.99153 39.547246 C 62.458463 39.547246 55.516215 44.582646 54.01385 53.563818 L 65.512722 53.563818 C 66.230886 50.658145 69.227362 48.677004 73.090587 48.677004 C 77.804052 48.677004 81.031661 51.368054 81.031661 55.462412 L 81.031661 57.352751 L 66.074046 57.352751 C 57.497356 57.352751 51.974925 62.313858 51.974925 69.941251 C 51.974925 77.907089 58.033915 82.785649 67.807544 82.785649 Z M 63.787479 69.478985 C 63.787479 66.639349 66.148339 64.831558 69.763921 64.831558 L 81.105953 64.831558 C 80.883075 70.428281 76.549329 74.192449 70.556377 74.192449 C 66.462019 74.192449 63.787479 72.310365 63.787479 69.478985 Z M 116.716963 83.099329 C 127.885646 83.099329 134.671054 78.212515 134.671054 70.345734 C 134.671054 63.576835 129.619144 59.234835 119.391504 57.19591 C 112.292415 55.776093 110.096651 54.595663 110.096651 52.077963 C 110.096651 49.634555 112.292415 48.214738 115.850214 48.214738 C 119.87028 48.214738 122.313687 50.022529 122.54482 53.175845 L 133.961145 53.175845 C 133.408077 44.425805 126.944604 39.547246 115.924507 39.547246 C 104.813608 39.547246 98.523485 44.046087 98.523485 52.077963 C 98.523485 58.929409 103.23695 63.023767 113.79478 64.905851 C 120.175706 66.020243 122.850246 67.671193 122.850246 70.271441 C 122.850246 72.714848 120.637972 74.192449 116.865549 74.192449 C 112.465765 74.192449 109.774715 72.079232 109.700422 68.694783 L 97.970416 68.694783 C 97.970416 77.345766 105.366676 83.099329 116.716963 83.099329 Z M 140.721789 82.001447 L 152.699438 82.001447 L 152.699438 60.274934 C 152.699438 53.737168 156.31502 49.791396 161.829196 49.791396 C 166.947144 49.791396 170.026167 53.250138 170.026167 59.309127 L 170.026167 82.001447 L 182.003815 82.001447 L 182.003815 58.136952 C 182.003815 46.638079 175.540343 39.547246 164.833926 39.547246 C 160.178245 39.547246 155.852754 40.967063 152.699438 43.790189 L 152.699438 23.714627 L 140.721789 23.714627 Z M 140.721789 82.001447 " stroke="#ffffff" stroke-width="4.528711" stroke-opacity="1" stroke-miterlimit="4"/><g fill="#008000" fill-opacity="1"><g transform="translate(112.43999, 68.780565)"><g><path d="M 12.148438 0.523438 C 17.667969 0.523438 21.804688 -2.722656 22.847656 -7.863281 L 17.332031 -7.863281 C 16.546875 -5.738281 14.609375 -4.359375 12.226562 -4.359375 C 9.167969 -4.359375 7.042969 -6.597656 7.042969 -9.800781 C 7.042969 -13.007812 9.167969 -15.242188 12.226562 -15.242188 C 14.460938 -15.242188 16.285156 -14.050781 17.21875 -12.074219 L 22.660156 -12.074219 C 21.765625 -16.921875 17.589844 -20.089844 12.148438 -20.089844 C 5.890625 -20.089844 1.453125 -15.800781 1.453125 -9.800781 C 1.453125 -3.765625 5.851562 0.523438 12.148438 0.523438 Z M 12.148438 0.523438 "/></g></g></g><g fill="#008000" fill-opacity="1"><g transform="translate(135.171696, 68.780565)"><g><path d="M 9.355469 0.371094 C 12.261719 0.371094 14.648438 -0.558594 16.324219 -2.273438 L 16.957031 0 L 21.167969 0 L 21.167969 -11.777344 C 21.167969 -16.957031 17.667969 -20.089844 11.816406 -20.089844 C 6.820312 -20.089844 3.539062 -17.703125 2.832031 -13.453125 L 8.273438 -13.453125 C 8.609375 -14.832031 10.027344 -15.765625 11.851562 -15.765625 C 14.089844 -15.765625 15.617188 -14.5 15.617188 -12.558594 L 15.617188 -11.664062 L 8.535156 -11.664062 C 4.472656 -11.664062 1.863281 -9.316406 1.863281 -5.703125 C 1.863281 -1.9375 4.734375 0.371094 9.355469 0.371094 Z M 7.453125 -5.925781 C 7.453125 -7.269531 8.570312 -8.125 10.285156 -8.125 L 15.652344 -8.125 C 15.542969 -5.480469 13.492188 -3.691406 10.660156 -3.691406 C 8.722656 -3.691406 7.453125 -4.585938 7.453125 -5.925781 Z M 7.453125 -5.925781 "/></g></g></g><g fill="#008000" fill-opacity="1"><g transform="translate(157.30715, 68.780565)"><g><path d="M 10.359375 0.523438 C 15.652344 0.523438 18.859375 -1.789062 18.859375 -5.515625 C 18.859375 -8.722656 16.472656 -10.769531 11.628906 -11.738281 C 8.273438 -12.410156 7.230469 -12.96875 7.230469 -14.164062 C 7.230469 -15.316406 8.273438 -15.988281 9.949219 -15.988281 C 11.851562 -15.988281 13.007812 -15.132812 13.117188 -13.640625 L 18.523438 -13.640625 C 18.261719 -17.777344 15.207031 -20.089844 9.988281 -20.089844 C 4.734375 -20.089844 1.75 -17.964844 1.75 -14.164062 C 1.75 -10.921875 3.988281 -8.980469 8.980469 -8.085938 C 12 -7.566406 13.269531 -6.78125 13.269531 -5.554688 C 13.269531 -4.398438 12.226562 -3.691406 10.4375 -3.691406 C 8.347656 -3.691406 7.082031 -4.695312 7.042969 -6.296875 L 1.492188 -6.296875 C 1.492188 -2.199219 4.996094 0.523438 10.359375 0.523438 Z M 10.359375 0.523438 "/></g></g></g><g fill="#008000" fill-opacity="1"><g transform="translate(176.200511, 68.780565)"><g><path d="M 2.832031 0 L 8.496094 0 L 8.496094 -10.285156 C 8.496094 -13.378906 10.210938 -15.242188 12.820312 -15.242188 C 15.242188 -15.242188 16.695312 -13.605469 16.695312 -10.734375 L 16.695312 0 L 22.363281 0 L 22.363281 -11.292969 C 22.363281 -16.734375 19.304688 -20.089844 14.238281 -20.089844 C 12.039062 -20.089844 9.988281 -19.417969 8.496094 -18.074219 L 8.496094 -27.578125 L 2.832031 -27.578125 Z M 2.832031 0 "/></g></g></g></svg>