<svg xmlns="http://www.w3.org/2000/svg" xmlns:xlink="http://www.w3.org/1999/xlink" width="110" zoomAndPan="magnify" viewBox="0 0 82.5 30.000001" height="40" preserveAspectRatio="xMidYMid meet" version="1.0"><defs><g/><clipPath id="f26cb38d0f"><path d="M 1.089844 0 L 80.925781 0 L 80.925781 29.03125 L 1.089844 29.03125 Z M 1.089844 0 " clip-rule="nonzero"/></clipPath><clipPath id="a9834bcab5"><path d="M 71.199219 3.707031 L 76.277344 3.707031 L 76.277344 8.785156 L 71.199219 8.785156 Z M 71.199219 3.707031 " clip-rule="nonzero"/></clipPath></defs><g clip-path="url(#f26cb38d0f)"><path fill="#ffffff" d="M 1.089844 0 L 80.925781 0 L 80.925781 29.03125 L 1.089844 29.03125 Z M 1.089844 0 " fill-opacity="1" fill-rule="nonzero"/><path fill="#0ca678" d="M 1.089844 0 L 80.925781 0 L 80.925781 29.03125 L 1.089844 29.03125 Z M 1.089844 0 " fill-opacity="1" fill-rule="nonzero"/></g><path stroke-linecap="butt" transform="matrix(0.181148, 0, 0, 0.181148, 4.872947, 4.554025)" fill="none" stroke-linejoin="miter" d="M 9.995386 81.989342 L 22.502407 81.989342 L 22.502407 64.824533 L 30.782918 64.824533 L 40.616025 81.989342 L 55.128483 81.989342 L 43.699653 62.862224 C 50.319749 59.951107 54.179675 53.956362 54.179675 45.848362 C 54.179675 34.117638 46.136366 26.872191 33.543089 26.872191 L 9.995386 26.872191 Z M 22.351461 54.27982 L 22.351461 37.589415 L 31.882674 37.589415 C 38.028365 37.589415 41.478578 40.586787 41.478578 45.934617 C 41.478578 51.282447 38.028365 54.27982 31.882674 54.27982 Z M 81.177591 83.089098 C 91.334155 83.089098 99.377464 77.913778 103.000188 69.158863 L 90.881315 69.158863 C 88.919006 71.919033 85.360974 73.493193 81.414793 73.493193 C 75.980708 73.493193 71.732633 70.431129 70.632878 64.759842 L 103.798049 64.759842 C 104.509656 49.643596 95.517538 39.551723 81.328538 39.551723 C 67.958963 39.551723 58.751207 48.436022 58.751207 61.288065 C 58.751207 74.183236 67.872707 83.089098 81.177591 83.089098 Z M 70.697569 57.190937 C 72.05609 52.166564 76.153218 49.082937 81.414793 49.082937 C 86.935134 49.082937 90.881315 52.166564 92.218272 57.190937 Z M 129.286497 83.089098 C 140.974093 83.089098 149.685881 76.253363 151.906956 65.385193 L 140.262487 65.385193 C 138.602072 69.870469 134.504944 72.781587 129.437444 72.781587 C 123.011422 72.781587 118.504582 68.059108 118.504582 61.288065 C 118.504582 54.495458 123.011422 49.794543 129.437444 49.794543 C 134.181487 49.794543 138.041413 52.317511 140.003721 56.479331 L 151.497243 56.479331 C 149.62119 46.236511 140.801583 39.551723 129.286497 39.551723 C 116.067869 39.551723 106.709166 48.608532 106.709166 61.288065 C 106.709166 74.032289 115.981614 83.089098 129.286497 83.089098 Z M 157.793881 97.752503 L 163.378914 97.752503 C 172.996382 97.752503 177.028819 95.380481 180.41434 86.884332 L 198.829851 40.651479 L 185.999372 40.651479 L 180.479031 55.703033 L 176.705361 66.247746 L 165.599988 40.651479 L 152.38136 40.651479 L 170.969382 80.652385 L 170.494978 82.075598 C 169.071765 86.172726 167.41135 87.444992 162.51636 87.444992 L 157.793881 87.444992 Z M 157.793881 97.752503 " stroke="#808080" stroke-width="4.528711" stroke-opacity="1" stroke-miterlimit="4"/><g fill="#ffffff" fill-opacity="1"><g transform="translate(5.484323, 19.408181)"><g><path d="M 1.199219 0 L 3.46875 0 L 3.46875 -3.109375 L 4.964844 -3.109375 L 6.75 0 L 9.375 0 L 7.304688 -3.46875 C 8.503906 -3.996094 9.203125 -5.078125 9.203125 -6.546875 C 9.203125 -8.675781 7.746094 -9.988281 5.464844 -9.988281 L 1.199219 -9.988281 Z M 3.4375 -5.023438 L 3.4375 -8.046875 L 5.164062 -8.046875 C 6.277344 -8.046875 6.90625 -7.503906 6.90625 -6.535156 C 6.90625 -5.5625 6.277344 -5.023438 5.164062 -5.023438 Z M 3.4375 -5.023438 "/></g></g></g><g fill="#ffffff" fill-opacity="1"><g transform="translate(14.956476, 19.408181)"><g><path d="M 4.621094 0.199219 C 6.464844 0.199219 7.917969 -0.742188 8.574219 -2.324219 L 6.378906 -2.324219 C 6.019531 -1.828125 5.378906 -1.539062 4.664062 -1.539062 C 3.679688 -1.539062 2.910156 -2.097656 2.710938 -3.125 L 8.71875 -3.125 C 8.84375 -5.863281 7.21875 -7.691406 4.652344 -7.691406 C 2.226562 -7.691406 0.554688 -6.078125 0.554688 -3.753906 C 0.554688 -1.414062 2.210938 0.199219 4.621094 0.199219 Z M 2.726562 -4.496094 C 2.96875 -5.40625 3.710938 -5.964844 4.664062 -5.964844 C 5.664062 -5.964844 6.378906 -5.40625 6.621094 -4.496094 Z M 2.726562 -4.496094 "/></g></g></g><g fill="#ffffff" fill-opacity="1"><g transform="translate(23.644034, 19.408181)"><g><path d="M 4.652344 0.199219 C 6.761719 0.199219 8.347656 -1.042969 8.746094 -3.011719 L 6.632812 -3.011719 C 6.335938 -2.195312 5.59375 -1.667969 4.679688 -1.667969 C 3.507812 -1.667969 2.695312 -2.523438 2.695312 -3.753906 C 2.695312 -4.980469 3.507812 -5.835938 4.679688 -5.835938 C 5.535156 -5.835938 6.234375 -5.378906 6.589844 -4.621094 L 8.675781 -4.621094 C 8.332031 -6.476562 6.734375 -7.691406 4.652344 -7.691406 C 2.253906 -7.691406 0.554688 -6.050781 0.554688 -3.753906 C 0.554688 -1.441406 2.238281 0.199219 4.652344 0.199219 Z M 4.652344 0.199219 "/></g></g></g><g fill="#ffffff" fill-opacity="1"><g transform="translate(32.345857, 19.408181)"><g><path d="M 1.113281 2.851562 L 2.125 2.851562 C 3.867188 2.851562 4.59375 2.425781 5.207031 0.882812 L 8.546875 -7.492188 L 6.21875 -7.492188 L 5.222656 -4.765625 L 4.535156 -2.851562 L 2.523438 -7.492188 L 0.128906 -7.492188 L 3.496094 -0.242188 L 3.410156 0.015625 C 3.152344 0.757812 2.851562 0.984375 1.96875 0.984375 L 1.113281 0.984375 Z M 1.113281 2.851562 "/></g></g></g><path stroke-linecap="butt" transform="matrix(0.725806, 0, 0, 0.725806, 41.008063, 4.721103)" fill="none" stroke-linejoin="miter" d="M 6.388023 19.274883 C 9.294273 19.274883 11.463197 17.568806 12.017537 14.86707 L 9.116669 14.86707 C 8.702259 15.981133 7.685072 16.707695 6.425697 16.707695 C 4.821877 16.707695 3.702433 15.529049 3.702433 13.844501 C 3.702433 12.15457 4.821877 10.986688 6.425697 10.986688 C 7.604343 10.986688 8.567711 11.610994 9.052086 12.649709 L 11.91528 12.649709 C 11.447051 10.098667 9.251218 8.435646 6.388023 8.435646 C 3.094273 8.435646 0.763891 10.690681 0.763891 13.844501 C 0.763891 17.019848 3.078127 19.274883 6.388023 19.274883 Z M 16.872051 19.194153 C 18.400523 19.194153 19.654516 18.709778 20.537155 17.805612 L 20.870836 19.000403 L 23.088197 19.000403 L 23.088197 12.805785 C 23.088197 10.082521 21.24219 8.435646 18.163718 8.435646 C 15.542711 8.435646 13.815107 9.68964 13.43837 11.923146 L 16.301565 11.923146 C 16.479169 11.201966 17.227259 10.706827 18.185246 10.706827 C 19.358509 10.706827 20.165801 11.37957 20.165801 12.396758 L 20.165801 12.864987 L 16.441495 12.864987 C 14.304864 12.864987 12.932468 14.097452 12.932468 15.997278 C 12.932468 17.983216 14.439412 19.194153 16.872051 19.194153 Z M 15.871009 15.884258 C 15.871009 15.179223 16.457641 14.72714 17.361808 14.72714 L 20.181947 14.72714 C 20.122746 16.121063 19.046357 17.057522 17.555558 17.057522 C 16.53837 17.057522 15.871009 16.589292 15.871009 15.884258 Z M 29.040628 19.274883 C 31.823093 19.274883 33.507641 18.058563 33.507641 16.099535 C 33.507641 14.414987 32.253648 13.333216 29.707989 12.827313 C 27.942711 12.472105 27.393753 12.18148 27.393753 11.551792 C 27.393753 10.949015 27.942711 10.593806 28.82535 10.593806 C 29.826391 10.593806 30.434551 11.040508 30.488371 11.826271 L 33.335419 11.826271 C 33.195489 9.651966 31.586287 8.435646 28.846878 8.435646 C 26.080558 8.435646 24.514412 9.555091 24.514412 11.551792 C 24.514412 13.257869 25.687676 14.275056 28.314065 14.748667 C 29.901739 15.023146 30.5691 15.437556 30.5691 16.08339 C 30.5691 16.686167 30.014759 17.057522 29.078301 17.057522 C 27.985766 17.057522 27.313023 16.530091 27.291496 15.690508 L 24.374482 15.690508 C 24.374482 17.843285 26.215107 19.274883 29.040628 19.274883 Z M 35.014586 19.000403 L 37.990801 19.000403 L 37.990801 13.591549 C 37.990801 11.966202 38.894968 10.986688 40.267364 10.986688 C 41.537503 10.986688 42.307121 11.847799 42.307121 13.354744 L 42.307121 19.000403 L 45.283336 19.000403 L 45.283336 13.064119 C 45.283336 10.200924 43.679517 8.435646 41.015454 8.435646 C 39.852954 8.435646 38.776565 8.790855 37.990801 9.490508 L 37.990801 4.496063 L 35.014586 4.496063 Z M 35.014586 19.000403 " stroke="#ffffff" stroke-width="1.127" stroke-opacity="1" stroke-miterlimit="4"/><g fill="#008000" fill-opacity="1"><g transform="translate(41.008063, 18.511426)"><g><path d="M 4.636719 0.199219 C 6.742188 0.199219 8.320312 -1.039062 8.71875 -3 L 6.613281 -3 C 6.316406 -2.191406 5.578125 -1.664062 4.667969 -1.664062 C 3.5 -1.664062 2.6875 -2.519531 2.6875 -3.742188 C 2.6875 -4.964844 3.5 -5.816406 4.667969 -5.816406 C 5.519531 -5.816406 6.214844 -5.363281 6.574219 -4.609375 L 8.648438 -4.609375 C 8.308594 -6.457031 6.714844 -7.667969 4.636719 -7.667969 C 2.246094 -7.667969 0.554688 -6.03125 0.554688 -3.742188 C 0.554688 -1.4375 2.234375 0.199219 4.636719 0.199219 Z M 4.636719 0.199219 "/></g></g></g><g fill="#008000" fill-opacity="1"><g transform="translate(49.68284, 18.511426)"><g><path d="M 3.570312 0.140625 C 4.679688 0.140625 5.589844 -0.214844 6.230469 -0.867188 L 6.472656 0 L 8.082031 0 L 8.082031 -4.496094 C 8.082031 -6.472656 6.742188 -7.667969 4.507812 -7.667969 C 2.601562 -7.667969 1.351562 -6.757812 1.082031 -5.136719 L 3.15625 -5.136719 C 3.285156 -5.660156 3.828125 -6.015625 4.523438 -6.015625 C 5.378906 -6.015625 5.960938 -5.535156 5.960938 -4.792969 L 5.960938 -4.453125 L 3.257812 -4.453125 C 1.707031 -4.453125 0.710938 -3.554688 0.710938 -2.175781 C 0.710938 -0.738281 1.808594 0.140625 3.570312 0.140625 Z M 2.84375 -2.261719 C 2.84375 -2.773438 3.273438 -3.101562 3.925781 -3.101562 L 5.976562 -3.101562 C 5.933594 -2.089844 5.148438 -1.410156 4.070312 -1.410156 C 3.328125 -1.410156 2.84375 -1.75 2.84375 -2.261719 Z M 2.84375 -2.261719 "/></g></g></g><g fill="#008000" fill-opacity="1"><g transform="translate(58.130072, 18.511426)"><g><path d="M 3.953125 0.199219 C 5.976562 0.199219 7.199219 -0.683594 7.199219 -2.105469 C 7.199219 -3.328125 6.289062 -4.109375 4.4375 -4.480469 C 3.15625 -4.738281 2.761719 -4.949219 2.761719 -5.40625 C 2.761719 -5.847656 3.15625 -6.101562 3.796875 -6.101562 C 4.523438 -6.101562 4.964844 -5.777344 5.007812 -5.207031 L 7.070312 -5.207031 C 6.96875 -6.785156 5.804688 -7.667969 3.8125 -7.667969 C 1.808594 -7.667969 0.667969 -6.855469 0.667969 -5.40625 C 0.667969 -4.167969 1.523438 -3.429688 3.429688 -3.085938 C 4.582031 -2.886719 5.0625 -2.589844 5.0625 -2.121094 C 5.0625 -1.679688 4.667969 -1.410156 3.984375 -1.410156 C 3.1875 -1.410156 2.703125 -1.792969 2.6875 -2.402344 L 0.570312 -2.402344 C 0.570312 -0.839844 1.90625 0.199219 3.953125 0.199219 Z M 3.953125 0.199219 "/></g></g></g><g fill="#008000" fill-opacity="1"><g transform="translate(65.340058, 18.511426)"><g><path d="M 1.082031 0 L 3.242188 0 L 3.242188 -3.925781 C 3.242188 -5.105469 3.898438 -5.816406 4.894531 -5.816406 C 5.816406 -5.816406 6.375 -5.191406 6.375 -4.097656 L 6.375 0 L 8.535156 0 L 8.535156 -4.308594 C 8.535156 -6.386719 7.367188 -7.667969 5.433594 -7.667969 C 4.59375 -7.667969 3.8125 -7.410156 3.242188 -6.898438 L 3.242188 -10.527344 L 1.082031 -10.527344 Z M 1.082031 0 "/></g></g></g><g clip-path="url(#a9834bcab5)"><path fill="#ffffff" d="M 73.628906 3.707031 C 73.953125 3.707031 74.261719 3.765625 74.5625 3.890625 C 74.859375 4.015625 75.121094 4.191406 75.351562 4.417969 C 75.578125 4.644531 75.753906 4.910156 75.878906 5.207031 C 76 5.503906 76.0625 5.816406 76.0625 6.136719 C 76.0625 6.460938 76 6.769531 75.878906 7.070312 C 75.753906 7.367188 75.578125 7.628906 75.351562 7.859375 C 75.121094 8.085938 74.859375 8.261719 74.5625 8.386719 C 74.261719 8.507812 73.953125 8.570312 73.628906 8.570312 C 73.308594 8.570312 72.996094 8.507812 72.699219 8.386719 C 72.402344 8.261719 72.136719 8.085938 71.910156 7.859375 C 71.683594 7.628906 71.507812 7.367188 71.382812 7.070312 C 71.257812 6.769531 71.199219 6.460938 71.199219 6.136719 C 71.199219 5.816406 71.257812 5.503906 71.382812 5.207031 C 71.507812 4.910156 71.683594 4.644531 71.910156 4.417969 C 72.136719 4.191406 72.402344 4.015625 72.699219 3.890625 C 72.996094 3.765625 73.308594 3.707031 73.628906 3.707031 Z M 74.863281 6.046875 L 74.863281 6.042969 C 74.863281 5.964844 74.824219 5.921875 74.742188 5.921875 L 74.617188 5.921875 C 74.621094 5.902344 74.621094 5.878906 74.625 5.859375 C 74.625 5.835938 74.625 5.8125 74.625 5.789062 C 74.625 5.777344 74.625 5.769531 74.625 5.757812 L 74.625 5.726562 L 74.742188 5.726562 C 74.824219 5.726562 74.863281 5.683594 74.863281 5.605469 L 74.863281 5.601562 C 74.863281 5.519531 74.824219 5.480469 74.742188 5.480469 L 74.589844 5.480469 C 74.539062 5.28125 74.429688 5.128906 74.261719 5.015625 C 74.097656 4.90625 73.878906 4.851562 73.605469 4.851562 C 73.449219 4.851562 73.289062 4.851562 73.128906 4.851562 C 73.011719 4.851562 72.910156 4.894531 72.828125 4.976562 C 72.742188 5.0625 72.699219 5.160156 72.699219 5.28125 L 72.699219 5.480469 L 72.519531 5.480469 C 72.4375 5.480469 72.394531 5.519531 72.394531 5.601562 C 72.394531 5.683594 72.4375 5.726562 72.519531 5.726562 L 72.699219 5.726562 L 72.699219 5.921875 L 72.519531 5.921875 C 72.4375 5.921875 72.394531 5.964844 72.394531 6.046875 C 72.394531 6.128906 72.4375 6.167969 72.519531 6.167969 L 72.699219 6.167969 L 72.699219 7.144531 C 72.699219 7.222656 72.726562 7.289062 72.785156 7.34375 C 72.839844 7.398438 72.90625 7.425781 72.984375 7.425781 C 73.058594 7.425781 73.125 7.398438 73.183594 7.34375 C 73.238281 7.289062 73.265625 7.222656 73.265625 7.144531 L 73.265625 6.773438 L 73.582031 6.773438 C 73.695312 6.773438 73.808594 6.761719 73.921875 6.734375 C 74.019531 6.710938 74.113281 6.671875 74.203125 6.621094 C 74.289062 6.570312 74.359375 6.507812 74.421875 6.429688 C 74.488281 6.351562 74.535156 6.265625 74.566406 6.167969 L 74.742188 6.167969 C 74.824219 6.167969 74.863281 6.128906 74.863281 6.046875 Z M 74.863281 6.046875 " fill-opacity="1" fill-rule="nonzero"/></g><path fill="#ffffff" d="M 74.058594 5.75 C 74.058594 5.765625 74.058594 5.777344 74.058594 5.789062 C 74.058594 5.816406 74.058594 5.84375 74.058594 5.867188 C 74.054688 5.890625 74.054688 5.914062 74.050781 5.9375 L 73.261719 5.9375 L 73.261719 5.710938 C 73.527344 5.710938 73.789062 5.710938 74.054688 5.710938 C 74.054688 5.726562 74.058594 5.738281 74.058594 5.75 Z M 74.058594 5.75 " fill-opacity="1" fill-rule="nonzero"/><path fill="#ffffff" d="M 73.992188 5.480469 L 73.261719 5.480469 L 73.261719 5.257812 C 73.300781 5.257812 73.34375 5.257812 73.386719 5.257812 C 73.4375 5.257812 73.496094 5.257812 73.554688 5.261719 C 73.613281 5.265625 73.671875 5.277344 73.726562 5.292969 C 73.78125 5.304688 73.832031 5.328125 73.882812 5.359375 C 73.929688 5.390625 73.964844 5.429688 73.992188 5.480469 Z M 73.992188 5.480469 " fill-opacity="1" fill-rule="nonzero"/><path fill="#ffffff" d="M 73.261719 6.167969 L 73.976562 6.167969 C 73.949219 6.214844 73.914062 6.253906 73.871094 6.289062 C 73.828125 6.316406 73.78125 6.339844 73.734375 6.355469 C 73.679688 6.371094 73.625 6.382812 73.570312 6.386719 C 73.511719 6.390625 73.449219 6.390625 73.386719 6.390625 C 73.34375 6.390625 73.300781 6.390625 73.261719 6.390625 Z M 73.261719 6.167969 " fill-opacity="1" fill-rule="nonzero"/></svg>