<svg xmlns="http://www.w3.org/2000/svg" xmlns:xlink="http://www.w3.org/1999/xlink" width="250" zoomAndPan="magnify" viewBox="0 0 187.5 93.749997" height="125" preserveAspectRatio="xMidYMid meet" version="1.0"><defs><g/><clipPath id="10c2c1eafa"><path d="M 0 0 L 187 0 L 187 93.5 L 0 93.5 Z M 0 0 " clip-rule="nonzero"/></clipPath><clipPath id="d059245756"><path d="M 159.839844 22.011719 L 171.808594 22.011719 L 171.808594 33.980469 L 159.839844 33.980469 Z M 159.839844 22.011719 " clip-rule="nonzero"/></clipPath></defs><g clip-path="url(#10c2c1eafa)"><path fill="#ffffff" d="M 0 0 L 187 0 L 187 93.5 L 0 93.5 Z M 0 0 " fill-opacity="1" fill-rule="nonzero"/><path fill="#0ca678" d="M 0 0 L 187 0 L 187 93.5 L 0 93.5 Z M 0 0 " fill-opacity="1" fill-rule="nonzero"/></g><g clip-path="url(#d059245756)"><path fill="#ffffff" d="M 165.851562 22.011719 C 166.246094 22.011719 166.640625 22.050781 167.027344 22.125 C 167.414062 22.203125 167.789062 22.316406 168.152344 22.46875 C 168.519531 22.621094 168.867188 22.804688 169.195312 23.023438 C 169.523438 23.242188 169.824219 23.492188 170.105469 23.773438 C 170.382812 24.050781 170.632812 24.355469 170.851562 24.683594 C 171.070312 25.011719 171.257812 25.359375 171.410156 25.722656 C 171.558594 26.089844 171.671875 26.464844 171.75 26.851562 C 171.828125 27.238281 171.867188 27.628906 171.867188 28.023438 C 171.867188 28.417969 171.828125 28.808594 171.75 29.199219 C 171.671875 29.585938 171.558594 29.960938 171.410156 30.324219 C 171.257812 30.691406 171.070312 31.035156 170.851562 31.363281 C 170.632812 31.695312 170.382812 31.996094 170.105469 32.277344 C 169.824219 32.554688 169.523438 32.804688 169.195312 33.023438 C 168.867188 33.242188 168.519531 33.429688 168.152344 33.578125 C 167.789062 33.730469 167.414062 33.84375 167.027344 33.921875 C 166.640625 34 166.246094 34.039062 165.851562 34.039062 C 165.457031 34.039062 165.066406 34 164.679688 33.921875 C 164.292969 33.84375 163.917969 33.730469 163.550781 33.578125 C 163.1875 33.429688 162.839844 33.242188 162.511719 33.023438 C 162.183594 32.804688 161.878906 32.554688 161.601562 32.277344 C 161.320312 31.996094 161.074219 31.695312 160.851562 31.363281 C 160.632812 31.035156 160.449219 30.691406 160.296875 30.324219 C 160.144531 29.960938 160.03125 29.585938 159.957031 29.199219 C 159.878906 28.808594 159.839844 28.417969 159.839844 28.023438 C 159.839844 27.628906 159.878906 27.238281 159.957031 26.851562 C 160.03125 26.464844 160.144531 26.089844 160.296875 25.722656 C 160.449219 25.359375 160.632812 25.011719 160.851562 24.683594 C 161.074219 24.355469 161.320312 24.050781 161.601562 23.773438 C 161.878906 23.492188 162.183594 23.242188 162.511719 23.023438 C 162.839844 22.804688 163.1875 22.621094 163.550781 22.46875 C 163.917969 22.316406 164.292969 22.203125 164.679688 22.125 C 165.066406 22.050781 165.457031 22.011719 165.851562 22.011719 Z M 168.90625 27.796875 L 168.90625 27.792969 C 168.90625 27.707031 168.875 27.636719 168.816406 27.578125 C 168.757812 27.519531 168.6875 27.488281 168.605469 27.488281 L 168.296875 27.488281 C 168.304688 27.4375 168.308594 27.382812 168.308594 27.328125 C 168.3125 27.273438 168.316406 27.21875 168.316406 27.160156 C 168.316406 27.136719 168.3125 27.109375 168.308594 27.085938 L 168.308594 27.003906 L 168.605469 27.003906 C 168.6875 27.003906 168.757812 26.976562 168.816406 26.917969 C 168.875 26.859375 168.90625 26.785156 168.90625 26.703125 L 168.90625 26.699219 C 168.90625 26.613281 168.875 26.542969 168.816406 26.484375 C 168.757812 26.425781 168.6875 26.398438 168.605469 26.398438 L 168.222656 26.398438 C 168.101562 25.90625 167.832031 25.523438 167.410156 25.246094 C 167.003906 24.976562 166.464844 24.84375 165.792969 24.84375 C 165.402344 24.84375 165.007812 24.84375 164.617188 24.84375 C 164.476562 24.84375 164.339844 24.871094 164.210938 24.921875 C 164.082031 24.976562 163.964844 25.054688 163.867188 25.152344 C 163.765625 25.253906 163.691406 25.367188 163.636719 25.496094 C 163.582031 25.628906 163.554688 25.761719 163.554688 25.902344 L 163.554688 26.398438 L 163.105469 26.398438 C 163.019531 26.398438 162.949219 26.425781 162.890625 26.484375 C 162.828125 26.546875 162.800781 26.617188 162.800781 26.699219 C 162.800781 26.785156 162.828125 26.855469 162.890625 26.914062 C 162.949219 26.976562 163.019531 27.003906 163.105469 27.003906 L 163.554688 27.003906 L 163.554688 27.492188 L 163.105469 27.492188 C 163.019531 27.492188 162.949219 27.519531 162.890625 27.578125 C 162.828125 27.636719 162.800781 27.710938 162.800781 27.792969 C 162.800781 27.878906 162.828125 27.949219 162.890625 28.007812 C 162.949219 28.070312 163.019531 28.097656 163.105469 28.097656 L 163.554688 28.097656 L 163.554688 30.507812 C 163.554688 30.703125 163.625 30.867188 163.761719 31 C 163.894531 31.136719 164.058594 31.207031 164.253906 31.207031 C 164.445312 31.207031 164.609375 31.136719 164.746094 31 C 164.882812 30.867188 164.949219 30.703125 164.949219 30.507812 L 164.949219 29.59375 L 165.734375 29.59375 C 166.015625 29.59375 166.296875 29.5625 166.570312 29.5 C 166.816406 29.441406 167.050781 29.347656 167.273438 29.21875 C 167.480469 29.09375 167.660156 28.9375 167.8125 28.75 C 167.96875 28.554688 168.089844 28.335938 168.167969 28.097656 L 168.605469 28.097656 C 168.6875 28.097656 168.757812 28.070312 168.816406 28.011719 C 168.875 27.953125 168.90625 27.878906 168.90625 27.796875 Z M 168.90625 27.796875 " fill-opacity="1" fill-rule="nonzero"/></g><path fill="#ffffff" d="M 166.910156 27.066406 C 166.910156 27.097656 166.914062 27.132812 166.914062 27.164062 C 166.914062 27.230469 166.910156 27.292969 166.910156 27.351562 C 166.90625 27.410156 166.898438 27.464844 166.890625 27.523438 L 164.941406 27.523438 L 164.941406 26.96875 C 165.59375 26.972656 166.25 26.972656 166.90625 26.96875 C 166.90625 27 166.910156 27.035156 166.910156 27.066406 Z M 166.910156 27.066406 " fill-opacity="1" fill-rule="nonzero"/><path fill="#ffffff" d="M 166.75 26.398438 L 164.941406 26.398438 L 164.941406 25.84375 C 165.042969 25.84375 165.144531 25.84375 165.25 25.84375 C 165.382812 25.84375 165.519531 25.847656 165.667969 25.859375 C 165.8125 25.867188 165.953125 25.890625 166.09375 25.933594 C 166.230469 25.96875 166.355469 26.023438 166.472656 26.097656 C 166.59375 26.171875 166.683594 26.273438 166.75 26.398438 Z M 166.75 26.398438 " fill-opacity="1" fill-rule="nonzero"/><path fill="#ffffff" d="M 164.941406 28.097656 L 166.707031 28.097656 C 166.640625 28.214844 166.550781 28.3125 166.445312 28.394531 C 166.339844 28.46875 166.226562 28.523438 166.105469 28.5625 C 165.972656 28.601562 165.839844 28.625 165.699219 28.632812 C 165.558594 28.644531 165.40625 28.652344 165.25 28.652344 C 165.144531 28.652344 165.042969 28.652344 164.941406 28.652344 Z M 164.941406 28.097656 " fill-opacity="1" fill-rule="nonzero"/><path stroke-linecap="butt" transform="matrix(0.397378, 0, 0, 0.397378, -16.382496, 24.896829)" fill="none" stroke-linejoin="miter" d="M 87.034533 81.996558 L 99.558026 81.996558 L 99.558026 64.833277 L 107.825105 64.833277 L 117.664992 81.996558 L 132.164327 81.996558 L 120.7418 62.867265 C 127.357429 59.947738 131.220642 53.961233 131.220642 45.851436 C 131.220642 34.124177 123.189485 26.869594 110.587351 26.869594 L 87.034533 26.869594 Z M 99.400745 54.275795 L 99.400745 37.584357 L 108.935901 37.584357 C 115.069857 37.584357 118.530037 40.582525 118.530037 45.930076 C 118.530037 51.287458 115.069857 54.275795 108.935901 54.275795 Z M 158.22381 83.097524 C 168.37826 83.097524 176.419247 77.907254 180.056368 69.158502 L 167.916247 69.158502 C 165.960065 71.920748 162.401585 73.503388 158.459732 73.503388 C 153.03354 73.503388 148.786955 70.42658 147.666328 64.754636 L 180.842773 64.754636 C 181.550537 49.636008 172.575694 39.540539 158.381091 39.540539 C 145.002383 39.540539 135.791619 48.446571 135.791619 61.294456 C 135.791619 74.191492 144.923742 83.097524 158.22381 83.097524 Z M 147.744969 57.195322 C 149.091687 52.152503 153.190821 49.085525 158.459732 49.085525 C 163.974394 49.085525 167.916247 52.152503 169.262965 57.195322 Z M 206.341942 83.097524 C 218.010221 83.097524 226.739312 76.245974 228.951075 65.38376 L 217.302456 65.38376 C 215.651007 69.866266 211.551873 72.785794 206.489393 72.785794 C 200.050705 72.785794 195.548539 68.057536 195.548539 61.294456 C 195.548539 54.501886 200.050705 49.793289 206.489393 49.793289 C 211.227481 49.793289 215.090693 52.309784 217.046875 56.487558 L 228.548042 56.487558 C 226.660671 46.234808 217.84311 39.540539 206.341942 39.540539 C 193.110685 39.540539 183.74264 48.603852 183.74264 61.294456 C 183.74264 74.044041 193.032044 83.097524 206.341942 83.097524 Z M 234.839279 97.74431 L 240.432582 97.74431 C 250.046378 97.74431 254.066872 95.385096 257.458242 86.882096 L 275.86994 40.661165 L 263.051545 40.661165 L 257.527052 55.691323 L 253.76214 66.248805 L 242.644345 40.661165 L 229.422917 40.661165 L 248.011556 80.64984 L 247.529884 82.075198 C 246.104525 86.174332 244.453076 87.442409 239.567537 87.442409 L 234.839279 87.442409 Z M 234.839279 97.74431 " stroke="#808080" stroke-width="4.528711" stroke-opacity="1" stroke-miterlimit="4"/><g fill="#ffffff" fill-opacity="1"><g transform="translate(15.575399, 57.481837)"><g><path d="M 2.628906 0 L 7.605469 0 L 7.605469 -6.824219 L 10.890625 -6.824219 L 14.804688 0 L 20.5625 0 L 16.023438 -7.605469 C 18.652344 -8.761719 20.1875 -11.140625 20.1875 -14.367188 C 20.1875 -19.027344 16.996094 -21.910156 11.988281 -21.910156 L 2.628906 -21.910156 Z M 7.542969 -11.015625 L 7.542969 -17.652344 L 11.328125 -17.652344 C 13.769531 -17.652344 15.148438 -16.460938 15.148438 -14.335938 C 15.148438 -12.207031 13.769531 -11.015625 11.328125 -11.015625 Z M 7.542969 -11.015625 "/></g></g></g><g fill="#ffffff" fill-opacity="1"><g transform="translate(36.35411, 57.481837)"><g><path d="M 10.140625 0.4375 C 14.179688 0.4375 17.371094 -1.628906 18.808594 -5.101562 L 13.988281 -5.101562 C 13.207031 -4.007812 11.800781 -3.378906 10.234375 -3.378906 C 8.074219 -3.378906 6.382812 -4.601562 5.945312 -6.855469 L 19.121094 -6.855469 C 19.40625 -12.863281 15.835938 -16.871094 10.203125 -16.871094 C 4.882812 -16.871094 1.21875 -13.332031 1.21875 -8.230469 C 1.21875 -3.097656 4.851562 0.4375 10.140625 0.4375 Z M 5.976562 -9.859375 C 6.511719 -11.863281 8.136719 -13.082031 10.234375 -13.082031 C 12.425781 -13.082031 13.988281 -11.863281 14.523438 -9.859375 Z M 5.976562 -9.859375 "/></g></g></g><g fill="#ffffff" fill-opacity="1"><g transform="translate(55.411682, 57.481837)"><g><path d="M 10.203125 0.4375 C 14.835938 0.4375 18.308594 -2.285156 19.183594 -6.605469 L 14.554688 -6.605469 C 13.894531 -4.820312 12.269531 -3.660156 10.265625 -3.660156 C 7.699219 -3.660156 5.914062 -5.539062 5.914062 -8.230469 C 5.914062 -10.921875 7.699219 -12.800781 10.265625 -12.800781 C 12.144531 -12.800781 13.675781 -11.800781 14.460938 -10.140625 L 19.027344 -10.140625 C 18.277344 -14.210938 14.773438 -16.871094 10.203125 -16.871094 C 4.945312 -16.871094 1.21875 -13.269531 1.21875 -8.230469 C 1.21875 -3.160156 4.914062 0.4375 10.203125 0.4375 Z M 10.203125 0.4375 "/></g></g></g><g fill="#ffffff" fill-opacity="1"><g transform="translate(74.500545, 57.481837)"><g><path d="M 2.441406 6.257812 L 4.664062 6.257812 C 8.480469 6.257812 10.078125 5.320312 11.421875 1.941406 L 18.746094 -16.429688 L 13.644531 -16.429688 L 11.453125 -10.453125 L 9.953125 -6.257812 L 5.539062 -16.429688 L 0.28125 -16.429688 L 7.667969 -0.53125 L 7.480469 0.03125 C 6.917969 1.660156 6.257812 2.160156 4.320312 2.160156 L 2.441406 2.160156 Z M 2.441406 6.257812 "/></g></g></g><path stroke-linecap="butt" transform="matrix(0.397378, 0, 0, 0.397378, 93.500661, 24.896829)" fill="none" stroke-linejoin="miter" d="M 25.674447 83.097524 C 37.342725 83.097524 46.071817 76.245974 48.28358 65.38376 L 36.634961 65.38376 C 34.973682 69.866266 30.884378 72.785794 25.821898 72.785794 C 19.38321 72.785794 14.881044 68.057536 14.881044 61.294456 C 14.881044 54.501886 19.38321 49.793289 25.821898 49.793289 C 30.550156 49.793289 34.423198 52.309784 36.37938 56.487558 L 47.880547 56.487558 C 45.993176 46.234808 37.165784 39.540539 25.674447 39.540539 C 12.44319 39.540539 3.075145 48.603852 3.075145 61.294456 C 3.075145 74.044041 12.364549 83.097524 25.674447 83.097524 Z M 67.806074 82.792792 C 73.95969 82.792792 78.99268 80.826781 82.5315 77.189659 L 83.878218 81.996558 L 92.78425 81.996558 L 92.78425 57.116682 C 92.78425 46.156167 85.382217 39.540539 72.996344 39.540539 C 62.458523 39.540539 55.518502 44.583358 54.014503 53.558201 L 65.515671 53.558201 C 66.223435 50.658334 69.231432 48.672662 73.094645 48.672662 C 77.803243 48.672662 81.037332 51.366098 81.037332 55.465232 L 81.037332 57.352603 L 66.075984 57.352603 C 57.494344 57.352603 51.979681 62.306952 51.979681 69.944907 C 51.979681 77.907254 58.034997 82.792792 67.806074 82.792792 Z M 63.78558 69.482894 C 63.78558 66.632177 66.154624 64.833277 69.762255 64.833277 L 81.106142 64.833277 C 80.880051 70.42658 76.554825 74.191492 70.55849 74.191492 C 66.459356 74.191492 63.78558 72.304121 63.78558 69.482894 Z M 116.710611 83.097524 C 127.887386 83.097524 134.670126 78.211985 134.670126 70.347939 C 134.670126 63.57503 129.617476 59.230144 119.384386 57.195322 C 112.296915 55.769964 110.104812 54.600187 110.104812 52.083692 C 110.104812 49.636008 112.296915 48.210649 115.845566 48.210649 C 119.866059 48.210649 122.313744 50.01938 122.539835 53.174829 L 133.962362 53.174829 C 133.402048 44.426077 126.943701 39.540539 115.924206 39.540539 C 104.816241 39.540539 98.525004 44.042705 98.525004 52.083692 C 98.525004 58.925412 103.233602 63.024546 113.791084 64.902087 C 120.180621 66.022714 122.844567 67.674164 122.844567 70.269299 C 122.844567 72.716983 120.642634 74.191492 116.867892 74.191492 C 112.464026 74.191492 109.77059 72.078029 109.70178 68.69649 L 97.964691 68.69649 C 97.964691 77.34694 105.366724 83.097524 116.710611 83.097524 Z M 140.715611 81.996558 L 152.698452 81.996558 L 152.698452 60.27213 C 152.698452 53.735142 156.315913 49.793289 161.830575 49.793289 C 166.952035 49.793289 170.028843 53.253469 170.028843 59.308785 L 170.028843 81.996558 L 182.001853 81.996558 L 182.001853 58.139008 C 182.001853 46.63784 175.543505 39.540539 164.828743 39.540539 C 160.179125 39.540539 155.8539 40.965897 152.698452 43.796954 L 152.698452 23.714146 L 140.715611 23.714146 Z M 140.715611 81.996558 " stroke="#ffffff" stroke-width="4.528711" stroke-opacity="1" stroke-miterlimit="4"/><g fill="#008000" fill-opacity="1"><g transform="translate(93.500661, 57.481837)"><g><path d="M 10.203125 0.4375 C 14.835938 0.4375 18.308594 -2.285156 19.183594 -6.605469 L 14.554688 -6.605469 C 13.894531 -4.820312 12.269531 -3.660156 10.265625 -3.660156 C 7.699219 -3.660156 5.914062 -5.539062 5.914062 -8.230469 C 5.914062 -10.921875 7.699219 -12.800781 10.265625 -12.800781 C 12.144531 -12.800781 13.675781 -11.800781 14.460938 -10.140625 L 19.027344 -10.140625 C 18.277344 -14.210938 14.773438 -16.871094 10.203125 -16.871094 C 4.945312 -16.871094 1.21875 -13.269531 1.21875 -8.230469 C 1.21875 -3.160156 4.914062 0.4375 10.203125 0.4375 Z M 10.203125 0.4375 "/></g></g></g><g fill="#008000" fill-opacity="1"><g transform="translate(112.589526, 57.481837)"><g><path d="M 7.855469 0.3125 C 10.296875 0.3125 12.300781 -0.46875 13.707031 -1.910156 L 14.242188 0 L 17.777344 0 L 17.777344 -9.890625 C 17.777344 -14.242188 14.835938 -16.871094 9.921875 -16.871094 C 5.726562 -16.871094 2.972656 -14.867188 2.378906 -11.296875 L 6.949219 -11.296875 C 7.230469 -12.457031 8.417969 -13.238281 9.953125 -13.238281 C 11.832031 -13.238281 13.113281 -12.175781 13.113281 -10.546875 L 13.113281 -9.796875 L 7.167969 -9.796875 C 3.753906 -9.796875 1.566406 -7.824219 1.566406 -4.789062 C 1.566406 -1.628906 3.976562 0.3125 7.855469 0.3125 Z M 6.257812 -4.976562 C 6.257812 -6.101562 7.199219 -6.824219 8.636719 -6.824219 L 13.144531 -6.824219 C 13.050781 -4.601562 11.328125 -3.097656 8.949219 -3.097656 C 7.324219 -3.097656 6.257812 -3.847656 6.257812 -4.976562 Z M 6.257812 -4.976562 "/></g></g></g><g fill="#008000" fill-opacity="1"><g transform="translate(131.177691, 57.481837)"><g><path d="M 8.699219 0.4375 C 13.144531 0.4375 15.835938 -1.503906 15.835938 -4.632812 C 15.835938 -7.324219 13.832031 -9.046875 9.765625 -9.859375 C 6.949219 -10.421875 6.070312 -10.890625 6.070312 -11.894531 C 6.070312 -12.863281 6.949219 -13.425781 8.355469 -13.425781 C 9.953125 -13.425781 10.921875 -12.707031 11.015625 -11.453125 L 15.554688 -11.453125 C 15.335938 -14.929688 12.769531 -16.871094 8.386719 -16.871094 C 3.976562 -16.871094 1.472656 -15.085938 1.472656 -11.894531 C 1.472656 -9.171875 3.347656 -7.542969 7.542969 -6.792969 C 10.078125 -6.351562 11.140625 -5.695312 11.140625 -4.664062 C 11.140625 -3.691406 10.265625 -3.097656 8.761719 -3.097656 C 7.011719 -3.097656 5.945312 -3.945312 5.914062 -5.289062 L 1.25 -5.289062 C 1.25 -1.847656 4.195312 0.4375 8.699219 0.4375 Z M 8.699219 0.4375 "/></g></g></g><g fill="#008000" fill-opacity="1"><g transform="translate(147.043321, 57.481837)"><g><path d="M 2.378906 0 L 7.136719 0 L 7.136719 -8.636719 C 7.136719 -11.234375 8.574219 -12.800781 10.765625 -12.800781 C 12.800781 -12.800781 14.019531 -11.421875 14.019531 -9.015625 L 14.019531 0 L 18.777344 0 L 18.777344 -9.484375 C 18.777344 -14.050781 16.210938 -16.871094 11.957031 -16.871094 C 10.109375 -16.871094 8.386719 -16.304688 7.136719 -15.179688 L 7.136719 -23.160156 L 2.378906 -23.160156 Z M 2.378906 0 "/></g></g></g></svg>