<svg xmlns="http://www.w3.org/2000/svg" xmlns:xlink="http://www.w3.org/1999/xlink" width="400" zoomAndPan="magnify" viewBox="0 0 300 187.499995" height="250" preserveAspectRatio="xMidYMid meet" version="1.0"><defs><g/><clipPath id="01a0877de2"><path d="M 0.398438 0 L 299.601562 0 L 299.601562 187 L 0.398438 187 Z M 0.398438 0 " clip-rule="nonzero"/></clipPath><clipPath id="d4bcac08dd"><path d="M 254.304688 55.6875 L 271.511719 55.6875 L 271.511719 72.890625 L 254.304688 72.890625 Z M 254.304688 55.6875 " clip-rule="nonzero"/></clipPath></defs><g clip-path="url(#01a0877de2)"><path fill="#ffffff" d="M 0.398438 0 L 299.601562 0 L 299.601562 187 L 0.398438 187 Z M 0.398438 0 " fill-opacity="1" fill-rule="nonzero"/><path fill="#0ca678" d="M 0.398438 0 L 299.601562 0 L 299.601562 187 L 0.398438 187 Z M 0.398438 0 " fill-opacity="1" fill-rule="nonzero"/></g><g clip-path="url(#d4bcac08dd)"><path fill="#ffffff" d="M 262.726562 55.6875 C 263.28125 55.6875 263.828125 55.742188 264.371094 55.847656 C 264.914062 55.957031 265.4375 56.117188 265.949219 56.328125 C 266.460938 56.539062 266.945312 56.796875 267.40625 57.105469 C 267.867188 57.414062 268.289062 57.761719 268.679688 58.152344 C 269.074219 58.542969 269.421875 58.96875 269.730469 59.429688 C 270.035156 59.890625 270.296875 60.375 270.507812 60.886719 C 270.71875 61.394531 270.878906 61.921875 270.984375 62.464844 C 271.09375 63.007812 271.148438 63.554688 271.148438 64.109375 C 271.148438 64.660156 271.09375 65.207031 270.984375 65.75 C 270.878906 66.292969 270.71875 66.820312 270.507812 67.332031 C 270.296875 67.839844 270.035156 68.328125 269.730469 68.785156 C 269.421875 69.246094 269.074219 69.671875 268.679688 70.0625 C 268.289062 70.453125 267.867188 70.800781 267.40625 71.109375 C 266.945312 71.417969 266.460938 71.675781 265.949219 71.886719 C 265.4375 72.097656 264.914062 72.257812 264.371094 72.367188 C 263.828125 72.472656 263.28125 72.527344 262.726562 72.527344 C 262.175781 72.527344 261.625 72.472656 261.085938 72.367188 C 260.542969 72.257812 260.015625 72.097656 259.503906 71.886719 C 258.992188 71.675781 258.507812 71.417969 258.046875 71.109375 C 257.589844 70.800781 257.164062 70.453125 256.773438 70.0625 C 256.382812 69.671875 256.03125 69.246094 255.726562 68.785156 C 255.417969 68.328125 255.160156 67.839844 254.945312 67.332031 C 254.734375 66.820312 254.574219 66.292969 254.46875 65.75 C 254.359375 65.207031 254.304688 64.660156 254.304688 64.109375 C 254.304688 63.554688 254.359375 63.007812 254.46875 62.464844 C 254.574219 61.921875 254.734375 61.394531 254.945312 60.886719 C 255.160156 60.375 255.417969 59.890625 255.726562 59.429688 C 256.03125 58.96875 256.382812 58.542969 256.773438 58.152344 C 257.164062 57.761719 257.589844 57.414062 258.046875 57.105469 C 258.507812 56.796875 258.992188 56.539062 259.503906 56.328125 C 260.015625 56.117188 260.542969 55.957031 261.085938 55.847656 C 261.625 55.742188 262.175781 55.6875 262.726562 55.6875 Z M 267.003906 63.789062 L 267.003906 63.78125 C 267.003906 63.664062 266.960938 63.566406 266.878906 63.484375 C 266.796875 63.402344 266.695312 63.359375 266.582031 63.359375 L 266.152344 63.359375 C 266.160156 63.285156 266.164062 63.210938 266.167969 63.136719 C 266.171875 63.054688 266.175781 62.976562 266.175781 62.898438 C 266.175781 62.863281 266.171875 62.828125 266.167969 62.792969 L 266.167969 62.679688 L 266.582031 62.679688 C 266.695312 62.679688 266.796875 62.636719 266.878906 62.554688 C 266.960938 62.472656 267.003906 62.375 267.003906 62.257812 L 267.003906 62.25 C 267.003906 62.132812 266.960938 62.035156 266.878906 61.953125 C 266.796875 61.871094 266.695312 61.828125 266.582031 61.828125 L 266.042969 61.828125 C 265.875 61.144531 265.496094 60.609375 264.910156 60.21875 C 264.339844 59.839844 263.585938 59.652344 262.644531 59.652344 C 262.09375 59.652344 261.546875 59.652344 260.996094 59.652344 C 260.796875 59.652344 260.609375 59.691406 260.425781 59.765625 C 260.246094 59.839844 260.085938 59.949219 259.945312 60.085938 C 259.804688 60.226562 259.699219 60.386719 259.625 60.570312 C 259.546875 60.75 259.511719 60.941406 259.511719 61.136719 L 259.511719 61.828125 L 258.878906 61.828125 C 258.761719 61.828125 258.660156 61.871094 258.578125 61.953125 C 258.492188 62.035156 258.453125 62.136719 258.453125 62.253906 C 258.453125 62.371094 258.492188 62.472656 258.578125 62.554688 C 258.660156 62.636719 258.761719 62.679688 258.878906 62.679688 L 259.511719 62.679688 L 259.511719 63.359375 L 258.878906 63.359375 C 258.761719 63.359375 258.660156 63.402344 258.578125 63.484375 C 258.492188 63.566406 258.453125 63.667969 258.453125 63.785156 C 258.453125 63.902344 258.492188 64.003906 258.578125 64.085938 C 258.660156 64.167969 258.761719 64.210938 258.878906 64.210938 L 259.511719 64.210938 L 259.511719 67.585938 C 259.511719 67.855469 259.605469 68.085938 259.796875 68.277344 C 259.988281 68.46875 260.214844 68.5625 260.484375 68.5625 C 260.753906 68.5625 260.984375 68.46875 261.175781 68.277344 C 261.367188 68.085938 261.460938 67.855469 261.460938 67.585938 L 261.460938 66.304688 L 262.5625 66.304688 C 262.957031 66.308594 263.347656 66.261719 263.730469 66.175781 C 264.078125 66.089844 264.40625 65.957031 264.714844 65.777344 C 265.003906 65.601562 265.257812 65.382812 265.472656 65.121094 C 265.691406 64.847656 265.855469 64.542969 265.96875 64.210938 L 266.582031 64.210938 C 266.695312 64.210938 266.796875 64.171875 266.878906 64.085938 C 266.960938 64.003906 267.003906 63.90625 267.003906 63.789062 Z M 267.003906 63.789062 " fill-opacity="1" fill-rule="nonzero"/></g><path fill="#ffffff" d="M 264.207031 62.769531 C 264.210938 62.8125 264.210938 62.855469 264.210938 62.90625 C 264.210938 62.996094 264.210938 63.082031 264.207031 63.164062 C 264.203125 63.246094 264.195312 63.328125 264.183594 63.40625 L 261.449219 63.40625 L 261.449219 62.632812 C 262.367188 62.632812 263.28125 62.632812 264.199219 62.632812 C 264.203125 62.675781 264.207031 62.722656 264.207031 62.769531 Z M 264.207031 62.769531 " fill-opacity="1" fill-rule="nonzero"/><path fill="#ffffff" d="M 263.980469 61.828125 L 261.449219 61.828125 L 261.449219 61.054688 C 261.59375 61.054688 261.738281 61.054688 261.882812 61.054688 C 262.066406 61.054688 262.261719 61.0625 262.46875 61.078125 C 262.667969 61.085938 262.867188 61.121094 263.0625 61.175781 C 263.253906 61.226562 263.429688 61.304688 263.597656 61.410156 C 263.761719 61.515625 263.890625 61.652344 263.980469 61.828125 Z M 263.980469 61.828125 " fill-opacity="1" fill-rule="nonzero"/><path fill="#ffffff" d="M 261.449219 64.210938 L 263.921875 64.210938 C 263.828125 64.375 263.707031 64.511719 263.554688 64.625 C 263.410156 64.730469 263.253906 64.808594 263.082031 64.863281 C 262.894531 64.914062 262.707031 64.949219 262.515625 64.960938 C 262.3125 64.976562 262.101562 64.984375 261.882812 64.984375 C 261.738281 64.984375 261.59375 64.984375 261.449219 64.984375 Z M 261.449219 64.210938 " fill-opacity="1" fill-rule="nonzero"/><path stroke-linecap="butt" transform="matrix(0.748005, 0, 0, 0.748005, 17.104391, 59.123887)" fill="none" stroke-linejoin="miter" d="M 17.286998 68.000048 L 27.882888 68.000048 L 27.882888 53.466602 L 34.880666 53.466602 L 43.210111 68.000048 L 55.482334 68.000048 L 45.816 51.805936 C 51.414223 49.335824 54.683334 44.270268 54.683334 37.403046 C 54.683334 27.475601 47.884 21.339489 37.220222 21.339489 L 17.286998 21.339489 Z M 27.752332 44.531379 L 27.752332 30.405267 L 35.820666 30.405267 C 41.011555 30.405267 43.941222 32.943268 43.941222 37.470935 C 43.941222 42.009046 41.011555 44.531379 35.820666 44.531379 Z M 77.541002 68.929603 C 86.136781 68.929603 92.936114 64.532492 96.012003 57.12738 L 85.745114 57.12738 C 84.084447 59.472158 81.076447 60.809047 77.739447 60.809047 C 73.149113 60.809047 69.551002 58.203158 68.611002 53.403936 L 96.680448 53.403936 C 97.286226 40.60949 89.68267 32.065934 77.671558 32.065934 C 66.344557 32.065934 58.553001 39.601601 58.553001 50.474269 C 58.553001 61.393936 66.28189 68.929603 77.541002 68.929603 Z M 68.673668 47.006713 C 69.812113 42.740157 73.279669 40.13949 77.739447 40.13949 C 82.408114 40.13949 85.745114 42.740157 86.883558 47.006713 Z M 118.269116 68.929603 C 128.144339 68.929603 135.533784 63.132936 137.40334 53.936602 L 127.543783 53.936602 C 126.144228 57.733158 122.676672 60.203269 118.394449 60.203269 C 112.942449 60.203269 109.135449 56.203047 109.135449 50.474269 C 109.135449 44.729824 112.942449 40.740046 118.394449 40.740046 C 122.399894 40.740046 125.669006 42.870713 127.329672 46.406157 L 137.063895 46.406157 C 135.471117 37.732046 127.998117 32.065934 118.269116 32.065934 C 107.067449 32.065934 99.145337 39.732157 99.145337 50.474269 C 99.145337 61.263381 107.004782 68.929603 118.269116 68.929603 Z M 142.390562 81.32716 L 147.127118 81.32716 C 155.263341 81.32716 158.66823 79.327049 161.530008 72.136048 L 177.123565 33.011156 L 166.266564 33.011156 L 161.597897 45.737713 L 158.407119 54.672936 L 148.996674 33.011156 L 137.800229 33.011156 L 153.540007 66.861603 L 153.132674 68.062714 C 151.926341 71.53027 150.526785 72.606048 146.396007 72.606048 L 142.390562 72.606048 Z M 142.390562 81.32716 " stroke="#808080" stroke-width="3.833335" stroke-opacity="1" stroke-miterlimit="4"/><g fill="#ffffff" fill-opacity="1"><g transform="translate(25.846702, 109.988245)"><g><path d="M 4.1875 0 L 12.117188 0 L 12.117188 -10.871094 L 17.351562 -10.871094 L 23.585938 0 L 32.757812 0 L 25.53125 -12.117188 C 29.71875 -13.960938 32.160156 -17.75 32.160156 -22.886719 C 32.160156 -30.316406 27.074219 -34.902344 19.097656 -34.902344 L 4.1875 -34.902344 Z M 12.015625 -17.550781 L 12.015625 -28.121094 L 18.050781 -28.121094 C 21.9375 -28.121094 24.132812 -26.226562 24.132812 -22.835938 C 24.132812 -19.445312 21.9375 -17.550781 18.050781 -17.550781 Z M 12.015625 -17.550781 "/></g></g></g><g fill="#ffffff" fill-opacity="1"><g transform="translate(58.952969, 109.988245)"><g><path d="M 16.15625 0.699219 C 22.585938 0.699219 27.671875 -2.59375 29.96875 -8.128906 L 22.289062 -8.128906 C 21.042969 -6.382812 18.796875 -5.386719 16.304688 -5.386719 C 12.863281 -5.386719 10.171875 -7.328125 9.472656 -10.917969 L 30.464844 -10.917969 C 30.914062 -20.492188 25.230469 -26.875 16.253906 -26.875 C 7.777344 -26.875 1.945312 -21.242188 1.945312 -13.113281 C 1.945312 -4.9375 7.730469 0.699219 16.15625 0.699219 Z M 9.523438 -15.707031 C 10.371094 -18.898438 12.964844 -20.84375 16.304688 -20.84375 C 19.796875 -20.84375 22.289062 -18.898438 23.136719 -15.707031 Z M 9.523438 -15.707031 "/></g></g></g><g fill="#ffffff" fill-opacity="1"><g transform="translate(89.316979, 109.988245)"><g><path d="M 16.253906 0.699219 C 23.632812 0.699219 29.167969 -3.640625 30.566406 -10.519531 L 23.1875 -10.519531 C 22.140625 -7.679688 19.546875 -5.832031 16.355469 -5.832031 C 12.265625 -5.832031 9.425781 -8.824219 9.425781 -13.113281 C 9.425781 -17.402344 12.265625 -20.394531 16.355469 -20.394531 C 19.347656 -20.394531 21.789062 -18.796875 23.035156 -16.15625 L 30.316406 -16.15625 C 29.121094 -22.636719 23.535156 -26.875 16.253906 -26.875 C 7.878906 -26.875 1.945312 -21.140625 1.945312 -13.113281 C 1.945312 -5.035156 7.828125 0.699219 16.253906 0.699219 Z M 16.253906 0.699219 "/></g></g></g><g fill="#ffffff" fill-opacity="1"><g transform="translate(119.730848, 109.988245)"><g><path d="M 3.890625 9.972656 L 7.429688 9.972656 C 13.511719 9.972656 16.054688 8.476562 18.199219 3.089844 L 29.867188 -26.175781 L 21.738281 -26.175781 L 18.25 -16.652344 L 15.855469 -9.972656 L 8.824219 -26.175781 L 0.449219 -26.175781 L 12.214844 -0.847656 L 11.917969 0.0507812 C 11.019531 2.644531 9.972656 3.441406 6.882812 3.441406 L 3.890625 3.441406 Z M 3.890625 9.972656 "/></g></g></g><path stroke-linecap="butt" transform="matrix(0.748005, 0, 0, 0.748005, 149.999994, 59.123887)" fill="none" stroke-linejoin="miter" d="M 21.724454 68.929603 C 31.604899 68.929603 38.994344 63.132936 40.8639 53.936602 L 31.004344 53.936602 C 29.604788 57.733158 26.137232 60.203269 21.85501 60.203269 C 16.403009 60.203269 12.596009 56.203047 12.596009 50.474269 C 12.596009 44.729824 16.403009 40.740046 21.85501 40.740046 C 25.860455 40.740046 29.129566 42.870713 30.790233 46.406157 L 40.524456 46.406157 C 38.926456 37.732046 31.458677 32.065934 21.724454 32.065934 C 10.528009 32.065934 2.605897 39.732157 2.605897 50.474269 C 2.605897 61.263381 10.465342 68.929603 21.724454 68.929603 Z M 57.392235 68.668492 C 62.59879 68.668492 66.860124 67.007826 69.85768 63.931936 L 70.996124 68.000048 L 78.531792 68.000048 L 78.531792 46.938824 C 78.531792 37.664157 72.265124 32.065934 61.784124 32.065934 C 52.864568 32.065934 46.989567 36.33249 45.720567 43.930824 L 55.45479 43.930824 C 56.055346 41.471157 58.593346 39.794824 61.867679 39.794824 C 65.852235 39.794824 68.58868 42.076935 68.58868 45.539268 L 68.58868 47.137269 L 55.92479 47.137269 C 48.665901 47.137269 43.997234 51.335936 43.997234 57.795825 C 43.997234 64.532492 49.120234 68.668492 57.392235 68.668492 Z M 53.987345 57.404158 C 53.987345 54.996714 55.992679 53.466602 59.047679 53.466602 L 68.651346 53.466602 C 68.458124 58.203158 64.797346 61.393936 59.716124 61.393936 C 56.248568 61.393936 53.987345 59.795936 53.987345 57.404158 Z M 98.788793 68.929603 C 108.246238 68.929603 113.990683 64.793603 113.990683 58.135269 C 113.990683 52.411713 109.70846 48.730046 101.050015 47.006713 C 95.044459 45.80038 93.19057 44.808157 93.19057 42.67749 C 93.19057 40.60949 95.044459 39.408379 98.057682 39.408379 C 101.457349 39.408379 103.525349 40.933268 103.718571 43.607046 L 113.390127 43.607046 C 112.914905 36.201934 107.447238 32.065934 98.120349 32.065934 C 88.715126 32.065934 83.393681 35.872934 83.393681 42.67749 C 83.393681 48.468935 87.383459 51.936491 96.318682 53.534491 C 101.71846 54.474491 103.979682 55.874047 103.979682 58.072603 C 103.979682 60.140603 102.110127 61.393936 98.919349 61.393936 C 95.195904 61.393936 92.913793 59.602714 92.851126 56.735714 L 82.923681 56.735714 C 82.923681 64.062492 89.190348 68.929603 98.788793 68.929603 Z M 119.108461 68.000048 L 129.250017 68.000048 L 129.250017 49.60738 C 129.250017 44.077046 132.31024 40.740046 136.978907 40.740046 C 141.308129 40.740046 143.908796 43.669713 143.908796 48.797935 L 143.908796 68.000048 L 154.050352 68.000048 L 154.050352 47.805713 C 154.050352 38.07149 148.582685 32.065934 139.516907 32.065934 C 135.579351 32.065934 131.918573 33.272268 129.250017 35.664046 L 129.250017 18.670933 L 119.108461 18.670933 Z M 119.108461 68.000048 " stroke="#ffffff" stroke-width="3.833335" stroke-opacity="1" stroke-miterlimit="4"/><g fill="#008000" fill-opacity="1"><g transform="translate(149.999994, 109.988245)"><g><path d="M 16.253906 0.699219 C 23.632812 0.699219 29.167969 -3.640625 30.566406 -10.519531 L 23.1875 -10.519531 C 22.140625 -7.679688 19.546875 -5.832031 16.355469 -5.832031 C 12.265625 -5.832031 9.425781 -8.824219 9.425781 -13.113281 C 9.425781 -17.402344 12.265625 -20.394531 16.355469 -20.394531 C 19.347656 -20.394531 21.789062 -18.796875 23.035156 -16.15625 L 30.316406 -16.15625 C 29.121094 -22.636719 23.535156 -26.875 16.253906 -26.875 C 7.878906 -26.875 1.945312 -21.140625 1.945312 -13.113281 C 1.945312 -5.035156 7.828125 0.699219 16.253906 0.699219 Z M 16.253906 0.699219 "/></g></g></g><g fill="#008000" fill-opacity="1"><g transform="translate(180.413859, 109.988245)"><g><path d="M 12.515625 0.5 C 16.40625 0.5 19.597656 -0.746094 21.839844 -3.042969 L 22.6875 0 L 28.320312 0 L 28.320312 -15.757812 C 28.320312 -22.6875 23.632812 -26.875 15.804688 -26.875 C 9.125 -26.875 4.738281 -23.683594 3.789062 -18 L 11.070312 -18 C 11.519531 -19.84375 13.414062 -21.089844 15.855469 -21.089844 C 18.847656 -21.089844 20.890625 -19.394531 20.890625 -16.804688 L 20.890625 -15.605469 L 11.417969 -15.605469 C 5.984375 -15.605469 2.492188 -12.464844 2.492188 -7.628906 C 2.492188 -2.59375 6.332031 0.5 12.515625 0.5 Z M 9.972656 -7.929688 C 9.972656 -9.722656 11.46875 -10.871094 13.761719 -10.871094 L 20.941406 -10.871094 C 20.792969 -7.328125 18.050781 -4.9375 14.261719 -4.9375 C 11.667969 -4.9375 9.972656 -6.132812 9.972656 -7.929688 Z M 9.972656 -7.929688 "/></g></g></g><g fill="#008000" fill-opacity="1"><g transform="translate(210.029979, 109.988245)"><g><path d="M 13.863281 0.699219 C 20.941406 0.699219 25.230469 -2.394531 25.230469 -7.378906 C 25.230469 -11.667969 22.039062 -14.410156 15.558594 -15.707031 C 11.070312 -16.605469 9.671875 -17.351562 9.671875 -18.949219 C 9.671875 -20.492188 11.070312 -21.390625 13.3125 -21.390625 C 15.855469 -21.390625 17.402344 -20.242188 17.550781 -18.25 L 24.78125 -18.25 C 24.433594 -23.785156 20.34375 -26.875 13.363281 -26.875 C 6.332031 -26.875 2.34375 -24.035156 2.34375 -18.949219 C 2.34375 -14.609375 5.335938 -12.015625 12.015625 -10.820312 C 16.054688 -10.121094 17.75 -9.074219 17.75 -7.429688 C 17.75 -5.882812 16.355469 -4.9375 13.960938 -4.9375 C 11.167969 -4.9375 9.472656 -6.28125 9.425781 -8.425781 L 1.996094 -8.425781 C 1.996094 -2.941406 6.679688 0.699219 13.863281 0.699219 Z M 13.863281 0.699219 "/></g></g></g><g fill="#008000" fill-opacity="1"><g transform="translate(235.308342, 109.988245)"><g><path d="M 3.789062 0 L 11.367188 0 L 11.367188 -13.761719 C 11.367188 -17.902344 13.664062 -20.394531 17.152344 -20.394531 C 20.394531 -20.394531 22.339844 -18.199219 22.339844 -14.359375 L 22.339844 0 L 29.917969 0 L 29.917969 -15.109375 C 29.917969 -22.386719 25.828125 -26.875 19.046875 -26.875 C 16.105469 -26.875 13.363281 -25.976562 11.367188 -24.183594 L 11.367188 -36.898438 L 3.789062 -36.898438 Z M 3.789062 0 "/></g></g></g></svg>