<svg xmlns="http://www.w3.org/2000/svg" xmlns:xlink="http://www.w3.org/1999/xlink" width="132" zoomAndPan="magnify" viewBox="0 0 98.88 37.5" height="50" preserveAspectRatio="xMidYMid meet" version="1.0"><defs><g/><clipPath id="6134b0d6bb"><path d="M 83.480469 3.699219 L 90.144531 3.699219 L 90.144531 10.363281 L 83.480469 10.363281 Z M 83.480469 3.699219 " clip-rule="nonzero"/></clipPath></defs><path stroke-linecap="butt" transform="matrix(0.740132, 0, 0, 0.740132, 6.620911, 7.773952)" fill="none" stroke-linejoin="miter" d="M 6.52358 20.999584 L 9.917191 20.999584 L 9.917191 16.349861 L 12.154969 16.349861 L 14.820247 20.999584 L 18.746914 20.999584 L 15.654136 15.816806 C 17.443303 15.025139 18.49358 13.404861 18.49358 11.209306 C 18.49358 8.032083 16.313858 6.06875 12.904413 6.06875 L 6.52358 6.06875 Z M 9.874969 13.489306 L 9.874969 8.971528 L 12.455802 8.971528 C 14.118302 8.971528 15.057747 9.784306 15.057747 11.230417 C 15.057747 12.681806 14.118302 13.489306 12.455802 13.489306 Z M 25.808581 21.295139 C 28.558303 21.295139 30.732748 19.89125 31.714414 17.521528 L 28.431636 17.521528 C 27.898581 18.270973 26.938025 18.698473 25.866636 18.698473 C 24.399414 18.698473 23.248858 17.864584 22.948025 16.32875 L 31.930803 16.32875 C 32.120803 12.233195 29.693025 9.499306 25.845525 9.499306 C 22.224969 9.499306 19.72858 11.91125 19.72858 15.389306 C 19.72858 18.883195 22.203858 21.295139 25.808581 21.295139 Z M 22.969136 14.280972 C 23.333303 12.919306 24.441636 12.085417 25.866636 12.085417 C 27.365525 12.085417 28.431636 12.919306 28.795803 14.280972 Z M 38.839415 21.295139 C 41.995526 21.295139 44.35997 19.442639 44.961637 16.502917 L 41.805526 16.502917 C 41.356915 17.711528 40.248581 18.503195 38.876359 18.503195 C 37.134692 18.503195 35.915526 17.225973 35.915526 15.389306 C 35.915526 13.552639 37.134692 12.275417 38.876359 12.275417 C 40.158859 12.275417 41.203859 12.961528 41.736915 14.090972 L 44.850804 14.090972 C 44.338859 11.314861 41.953304 9.499306 38.839415 9.499306 C 35.255803 9.499306 32.717192 11.953472 32.717192 15.389306 C 32.717192 18.84625 35.234692 21.295139 38.839415 21.295139 Z M 46.555526 25.264028 L 48.070248 25.264028 C 50.677471 25.264028 51.764693 24.625417 52.677748 22.324306 L 57.670526 9.805417 L 54.197749 9.805417 L 52.69886 13.874584 L 51.680248 16.735139 L 48.671915 9.805417 L 45.088304 9.805417 L 50.123304 20.635417 L 49.991359 21.020695 C 49.606082 22.129028 49.157471 22.472084 47.838026 22.472084 L 46.555526 22.472084 Z M 46.555526 25.264028 " stroke="#808080" stroke-width="1.226665" stroke-opacity="1" stroke-miterlimit="4"/><g fill="#ffffff" fill-opacity="1"><g transform="translate(10.124972, 23.316714)"><g><path d="M 1.324219 0 L 3.835938 0 L 3.835938 -3.441406 L 5.492188 -3.441406 L 7.46875 0 L 10.371094 0 L 8.082031 -3.835938 C 9.410156 -4.421875 10.183594 -5.621094 10.183594 -7.246094 C 10.183594 -9.597656 8.574219 -11.050781 6.046875 -11.050781 L 1.324219 -11.050781 Z M 3.804688 -5.558594 L 3.804688 -8.902344 L 5.714844 -8.902344 C 6.945312 -8.902344 7.640625 -8.304688 7.640625 -7.230469 C 7.640625 -6.15625 6.945312 -5.558594 5.714844 -5.558594 Z M 3.804688 -5.558594 "/></g></g></g><g fill="#ffffff" fill-opacity="1"><g transform="translate(20.606514, 23.316714)"><g><path d="M 5.113281 0.222656 C 7.152344 0.222656 8.761719 -0.820312 9.488281 -2.574219 L 7.058594 -2.574219 C 6.664062 -2.019531 5.953125 -1.703125 5.164062 -1.703125 C 4.074219 -1.703125 3.21875 -2.320312 3 -3.457031 L 9.644531 -3.457031 C 9.789062 -6.488281 7.988281 -8.507812 5.148438 -8.507812 C 2.460938 -8.507812 0.617188 -6.726562 0.617188 -4.152344 C 0.617188 -1.5625 2.445312 0.222656 5.113281 0.222656 Z M 3.015625 -4.972656 C 3.285156 -5.984375 4.105469 -6.597656 5.164062 -6.597656 C 6.265625 -6.597656 7.058594 -5.984375 7.324219 -4.972656 Z M 3.015625 -4.972656 "/></g></g></g><g fill="#ffffff" fill-opacity="1"><g transform="translate(30.219845, 23.316714)"><g><path d="M 5.148438 0.222656 C 7.484375 0.222656 9.234375 -1.152344 9.675781 -3.332031 L 7.339844 -3.332031 C 7.007812 -2.429688 6.1875 -1.847656 5.179688 -1.847656 C 3.882812 -1.847656 2.984375 -2.792969 2.984375 -4.152344 C 2.984375 -5.507812 3.882812 -6.457031 5.179688 -6.457031 C 6.125 -6.457031 6.898438 -5.953125 7.292969 -5.113281 L 9.597656 -5.113281 C 9.21875 -7.167969 7.453125 -8.507812 5.148438 -8.507812 C 2.496094 -8.507812 0.617188 -6.695312 0.617188 -4.152344 C 0.617188 -1.59375 2.480469 0.222656 5.148438 0.222656 Z M 5.148438 0.222656 "/></g></g></g><g fill="#ffffff" fill-opacity="1"><g transform="translate(39.848965, 23.316714)"><g><path d="M 1.230469 3.15625 L 2.351562 3.15625 C 4.277344 3.15625 5.082031 2.683594 5.761719 0.980469 L 9.457031 -8.289062 L 6.882812 -8.289062 L 5.777344 -5.273438 L 5.019531 -3.15625 L 2.792969 -8.289062 L 0.140625 -8.289062 L 3.867188 -0.269531 L 3.773438 0.015625 C 3.488281 0.835938 3.15625 1.089844 2.179688 1.089844 L 1.230469 1.089844 Z M 1.230469 3.15625 "/></g></g></g><path stroke-linecap="butt" transform="matrix(0.740132, 0, 0, 0.740132, 49.439998, 7.773952)" fill="none" stroke-linejoin="miter" d="M 6.952736 21.295139 C 10.114125 21.295139 12.47857 19.442639 13.074959 16.502917 L 9.918848 16.502917 C 9.470236 17.711528 8.361903 18.503195 6.994959 18.503195 C 5.248014 18.503195 4.028847 17.225973 4.028847 15.389306 C 4.028847 13.552639 5.248014 12.275417 6.994959 12.275417 C 8.272181 12.275417 9.322459 12.961528 9.850236 14.090972 L 12.964126 14.090972 C 12.457459 11.314861 10.066625 9.499306 6.952736 9.499306 C 3.369125 9.499306 0.835792 11.953472 0.835792 15.389306 C 0.835792 18.84625 3.348014 21.295139 6.952736 21.295139 Z M 18.363292 21.215973 C 20.03107 21.215973 21.392737 20.682917 22.353293 19.695973 L 22.717459 20.999584 L 25.129404 20.999584 L 25.129404 14.259861 C 25.129404 11.29375 23.123848 9.499306 19.767181 9.499306 C 16.917181 9.499306 15.038292 10.86625 14.631903 13.299306 L 17.745792 13.299306 C 17.935792 12.512917 18.74857 11.974583 19.79357 11.974583 C 21.070793 11.974583 21.946904 12.702917 21.946904 13.81125 L 21.946904 14.323195 L 17.89357 14.323195 C 15.571348 14.323195 14.077737 15.669028 14.077737 17.732639 C 14.077737 19.89125 15.719126 21.215973 18.363292 21.215973 Z M 17.27607 17.61125 C 17.27607 16.840695 17.914681 16.349861 18.896348 16.349861 L 21.968015 16.349861 C 21.904681 17.864584 20.733015 18.883195 19.107459 18.883195 C 17.999126 18.883195 17.27607 18.376528 17.27607 17.61125 Z M 31.610515 21.295139 C 34.634682 21.295139 36.471349 19.975695 36.471349 17.843473 C 36.471349 16.012084 35.104404 14.835139 32.333571 14.280972 C 30.41246 13.895695 29.821348 13.579028 29.821348 12.898195 C 29.821348 12.233195 30.41246 11.847917 31.378293 11.847917 C 32.465515 11.847917 33.125237 12.33875 33.188571 13.19375 L 36.281349 13.19375 C 36.128293 10.824028 34.381349 9.499306 31.394126 9.499306 C 28.385793 9.499306 26.686348 10.718472 26.686348 12.898195 C 26.686348 14.750695 27.958293 15.859028 30.818848 16.370973 C 32.54996 16.671806 33.273015 17.120417 33.273015 17.822362 C 33.273015 18.487362 32.671349 18.883195 31.652737 18.883195 C 30.45996 18.883195 29.731626 18.313195 29.710515 17.394861 L 26.533293 17.394861 C 26.533293 19.738195 28.538848 21.295139 31.610515 21.295139 Z M 38.112738 20.999584 L 41.353293 20.999584 L 41.353293 15.114861 C 41.353293 13.346806 42.33496 12.275417 43.828571 12.275417 C 45.216627 12.275417 46.045238 13.214861 46.045238 14.85625 L 46.045238 20.999584 L 49.291071 20.999584 L 49.291071 14.539584 C 49.291071 11.425695 47.544127 9.499306 44.641349 9.499306 C 43.37996 9.499306 42.208293 9.884583 41.353293 10.655139 L 41.353293 5.21375 L 38.112738 5.21375 Z M 38.112738 20.999584 " stroke="#ffffff" stroke-width="1.226665" stroke-opacity="1" stroke-miterlimit="4"/><g fill="#008000" fill-opacity="1"><g transform="translate(49.439998, 23.316714)"><g><path d="M 5.148438 0.222656 C 7.484375 0.222656 9.234375 -1.152344 9.675781 -3.332031 L 7.339844 -3.332031 C 7.007812 -2.429688 6.1875 -1.847656 5.179688 -1.847656 C 3.882812 -1.847656 2.984375 -2.792969 2.984375 -4.152344 C 2.984375 -5.507812 3.882812 -6.457031 5.179688 -6.457031 C 6.125 -6.457031 6.898438 -5.953125 7.292969 -5.113281 L 9.597656 -5.113281 C 9.21875 -7.167969 7.453125 -8.507812 5.148438 -8.507812 C 2.496094 -8.507812 0.617188 -6.695312 0.617188 -4.152344 C 0.617188 -1.59375 2.480469 0.222656 5.148438 0.222656 Z M 5.148438 0.222656 "/></g></g></g><g fill="#008000" fill-opacity="1"><g transform="translate(59.069117, 23.316714)"><g><path d="M 3.960938 0.15625 C 5.195312 0.15625 6.203125 -0.238281 6.914062 -0.964844 L 7.183594 0 L 8.96875 0 L 8.96875 -4.988281 C 8.96875 -7.183594 7.484375 -8.507812 5.003906 -8.507812 C 2.890625 -8.507812 1.5 -7.5 1.199219 -5.699219 L 3.503906 -5.699219 C 3.648438 -6.285156 4.246094 -6.679688 5.019531 -6.679688 C 5.96875 -6.679688 6.613281 -6.140625 6.613281 -5.320312 L 6.613281 -4.941406 L 3.613281 -4.941406 C 1.894531 -4.941406 0.789062 -3.945312 0.789062 -2.414062 C 0.789062 -0.820312 2.003906 0.15625 3.960938 0.15625 Z M 3.15625 -2.511719 C 3.15625 -3.078125 3.632812 -3.441406 4.355469 -3.441406 L 6.628906 -3.441406 C 6.582031 -2.320312 5.714844 -1.5625 4.515625 -1.5625 C 3.695312 -1.5625 3.15625 -1.941406 3.15625 -2.511719 Z M 3.15625 -2.511719 "/></g></g></g><g fill="#008000" fill-opacity="1"><g transform="translate(68.445657, 23.316714)"><g><path d="M 4.390625 0.222656 C 6.628906 0.222656 7.988281 -0.757812 7.988281 -2.335938 C 7.988281 -3.695312 6.976562 -4.5625 4.925781 -4.972656 C 3.503906 -5.257812 3.0625 -5.492188 3.0625 -6 C 3.0625 -6.488281 3.503906 -6.773438 4.214844 -6.773438 C 5.019531 -6.773438 5.507812 -6.410156 5.558594 -5.777344 L 7.847656 -5.777344 C 7.734375 -7.53125 6.441406 -8.507812 4.230469 -8.507812 C 2.003906 -8.507812 0.742188 -7.609375 0.742188 -6 C 0.742188 -4.625 1.6875 -3.804688 3.804688 -3.425781 C 5.082031 -3.203125 5.621094 -2.875 5.621094 -2.351562 C 5.621094 -1.863281 5.179688 -1.5625 4.421875 -1.5625 C 3.535156 -1.5625 3 -1.988281 2.984375 -2.667969 L 0.632812 -2.667969 C 0.632812 -0.929688 2.117188 0.222656 4.390625 0.222656 Z M 4.390625 0.222656 "/></g></g></g><g fill="#008000" fill-opacity="1"><g transform="translate(76.448851, 23.316714)"><g><path d="M 1.199219 0 L 3.597656 0 L 3.597656 -4.355469 C 3.597656 -5.667969 4.324219 -6.457031 5.429688 -6.457031 C 6.457031 -6.457031 7.074219 -5.761719 7.074219 -4.546875 L 7.074219 0 L 9.472656 0 L 9.472656 -4.785156 C 9.472656 -7.089844 8.175781 -8.507812 6.03125 -8.507812 C 5.097656 -8.507812 4.230469 -8.226562 3.597656 -7.65625 L 3.597656 -11.683594 L 1.199219 -11.683594 Z M 1.199219 0 "/></g></g></g><g clip-path="url(#6134b0d6bb)"><path fill="#ffffff" d="M 86.851562 3.699219 C 87.300781 3.699219 87.730469 3.785156 88.144531 3.957031 C 88.554688 4.128906 88.921875 4.371094 89.238281 4.6875 C 89.554688 5.003906 89.796875 5.367188 89.96875 5.78125 C 90.136719 6.195312 90.222656 6.625 90.222656 7.070312 C 90.222656 7.519531 90.136719 7.949219 89.96875 8.363281 C 89.796875 8.773438 89.554688 9.140625 89.238281 9.457031 C 88.921875 9.773438 88.554688 10.015625 88.144531 10.1875 C 87.730469 10.355469 87.300781 10.441406 86.851562 10.441406 C 86.40625 10.441406 85.976562 10.355469 85.5625 10.1875 C 85.148438 10.015625 84.785156 9.773438 84.46875 9.457031 C 84.152344 9.140625 83.910156 8.773438 83.738281 8.363281 C 83.566406 7.949219 83.480469 7.519531 83.480469 7.070312 C 83.480469 6.625 83.566406 6.195312 83.738281 5.78125 C 83.910156 5.367188 84.152344 5.003906 84.46875 4.6875 C 84.785156 4.371094 85.148438 4.128906 85.5625 3.957031 C 85.976562 3.785156 86.40625 3.699219 86.851562 3.699219 Z M 88.566406 6.945312 L 88.566406 6.941406 C 88.566406 6.828125 88.507812 6.773438 88.394531 6.773438 L 88.222656 6.773438 C 88.226562 6.742188 88.230469 6.710938 88.230469 6.683594 C 88.230469 6.652344 88.234375 6.621094 88.234375 6.585938 C 88.234375 6.574219 88.230469 6.558594 88.230469 6.546875 L 88.230469 6.5 L 88.394531 6.5 C 88.507812 6.5 88.566406 6.445312 88.566406 6.332031 L 88.566406 6.328125 C 88.566406 6.214844 88.507812 6.160156 88.394531 6.160156 L 88.179688 6.160156 C 88.113281 5.886719 87.960938 5.671875 87.726562 5.515625 C 87.5 5.363281 87.195312 5.289062 86.820312 5.289062 C 86.601562 5.289062 86.378906 5.289062 86.160156 5.289062 C 85.996094 5.289062 85.855469 5.347656 85.738281 5.460938 C 85.625 5.578125 85.566406 5.71875 85.566406 5.882812 L 85.566406 6.160156 L 85.3125 6.160156 C 85.199219 6.160156 85.140625 6.214844 85.140625 6.328125 C 85.140625 6.441406 85.199219 6.5 85.3125 6.5 L 85.566406 6.5 L 85.566406 6.773438 L 85.3125 6.773438 C 85.199219 6.773438 85.140625 6.828125 85.140625 6.941406 C 85.140625 7.054688 85.199219 7.113281 85.3125 7.113281 L 85.566406 7.113281 L 85.566406 8.464844 C 85.566406 8.574219 85.601562 8.664062 85.679688 8.742188 C 85.757812 8.816406 85.847656 8.855469 85.957031 8.855469 C 86.0625 8.855469 86.15625 8.816406 86.230469 8.742188 C 86.308594 8.664062 86.347656 8.574219 86.347656 8.464844 L 86.347656 7.949219 L 86.785156 7.949219 C 86.945312 7.953125 87.101562 7.933594 87.253906 7.898438 C 87.394531 7.867188 87.523438 7.8125 87.648438 7.742188 C 87.765625 7.671875 87.867188 7.582031 87.953125 7.476562 C 88.039062 7.367188 88.105469 7.246094 88.148438 7.113281 L 88.394531 7.113281 C 88.507812 7.113281 88.566406 7.058594 88.566406 6.945312 Z M 88.566406 6.945312 " fill-opacity="1" fill-rule="nonzero"/></g><path fill="#ffffff" d="M 87.445312 6.535156 C 87.445312 6.554688 87.445312 6.570312 87.445312 6.589844 C 87.445312 6.625 87.445312 6.660156 87.445312 6.695312 C 87.441406 6.726562 87.441406 6.757812 87.433594 6.792969 L 86.339844 6.792969 L 86.339844 6.480469 C 86.707031 6.480469 87.074219 6.480469 87.441406 6.480469 C 87.445312 6.5 87.445312 6.515625 87.445312 6.535156 Z M 87.445312 6.535156 " fill-opacity="1" fill-rule="nonzero"/><path fill="#ffffff" d="M 87.355469 6.160156 L 86.339844 6.160156 L 86.339844 5.847656 C 86.398438 5.847656 86.457031 5.847656 86.515625 5.847656 C 86.589844 5.847656 86.667969 5.851562 86.75 5.859375 C 86.832031 5.863281 86.910156 5.875 86.988281 5.898438 C 87.0625 5.917969 87.136719 5.949219 87.199219 5.992188 C 87.265625 6.035156 87.320312 6.089844 87.355469 6.160156 Z M 87.355469 6.160156 " fill-opacity="1" fill-rule="nonzero"/><path fill="#ffffff" d="M 86.339844 7.113281 L 87.332031 7.113281 C 87.292969 7.179688 87.246094 7.234375 87.183594 7.277344 C 87.125 7.320312 87.0625 7.351562 86.996094 7.375 C 86.921875 7.394531 86.84375 7.410156 86.769531 7.414062 C 86.6875 7.421875 86.601562 7.421875 86.515625 7.421875 C 86.457031 7.421875 86.398438 7.421875 86.339844 7.421875 Z M 86.339844 7.113281 " fill-opacity="1" fill-rule="nonzero"/></svg>