<svg xmlns="http://www.w3.org/2000/svg" xmlns:xlink="http://www.w3.org/1999/xlink" width="110" zoomAndPan="magnify" viewBox="0 0 82.5 30.000001" height="40" preserveAspectRatio="xMidYMid meet" version="1.0"><defs><g/><clipPath id="85b32a2360"><path d="M 1.089844 4 L 42 4 L 42 27 L 1.089844 27 Z M 1.089844 4 " clip-rule="nonzero"/></clipPath><clipPath id="7ef4f8de83"><path d="M 66.84375 2.902344 L 71.921875 2.902344 L 71.921875 7.984375 L 66.84375 7.984375 Z M 66.84375 2.902344 " clip-rule="nonzero"/></clipPath></defs><g clip-path="url(#85b32a2360)"><path stroke-linecap="butt" transform="matrix(0.181148, 0, 0, 0.181148, 0.518017, 4.554025)" fill="none" stroke-linejoin="miter" d="M 9.99241 81.989342 L 22.499432 81.989342 L 22.499432 64.824533 L 30.779943 64.824533 L 40.61305 81.989342 L 55.125508 81.989342 L 43.696678 62.862224 C 50.316774 59.951107 54.1767 53.956362 54.1767 45.848362 C 54.1767 34.117638 46.133391 26.872191 33.540114 26.872191 L 9.99241 26.872191 Z M 22.348485 54.27982 L 22.348485 37.589415 L 31.901262 37.589415 C 38.02539 37.589415 41.475603 40.586787 41.475603 45.934617 C 41.475603 51.282447 38.02539 54.27982 31.901262 54.27982 Z M 81.174616 83.089098 C 91.33118 83.089098 99.374489 77.913778 102.997212 69.158863 L 90.87834 69.158863 C 88.916031 71.919033 85.357999 73.493193 81.411818 73.493193 C 75.999296 73.493193 71.729658 70.431129 70.629902 64.759842 L 103.795074 64.759842 C 104.506681 49.643596 95.514563 39.551723 81.325563 39.551723 C 67.955987 39.551723 58.748232 48.436022 58.748232 61.288065 C 58.748232 74.183236 67.869732 83.089098 81.174616 83.089098 Z M 70.694594 57.190937 C 72.053115 52.166564 76.150243 49.082937 81.411818 49.082937 C 86.932159 49.082937 90.87834 52.166564 92.215297 57.190937 Z M 129.283522 83.089098 C 140.971118 83.089098 149.70447 76.253363 151.903981 65.385193 L 140.259512 65.385193 C 138.599097 69.870469 134.501969 72.781587 129.456033 72.781587 C 123.008447 72.781587 118.501607 68.059108 118.501607 61.288065 C 118.501607 54.495458 123.008447 49.794543 129.456033 49.794543 C 134.178512 49.794543 138.038437 52.317511 140.000746 56.479331 L 151.494268 56.479331 C 149.618215 46.236511 140.798608 39.551723 129.283522 39.551723 C 116.064894 39.551723 106.706191 48.608532 106.706191 61.288065 C 106.706191 74.032289 115.978639 83.089098 129.283522 83.089098 Z M 157.790906 97.752503 L 163.397502 97.752503 C 172.993407 97.752503 177.025843 95.380481 180.411365 86.884332 L 198.826876 40.651479 L 185.996397 40.651479 L 180.476056 55.703033 L 176.72395 66.247746 L 165.597013 40.651479 L 152.378385 40.651479 L 170.966407 80.652385 L 170.492003 82.075598 C 169.06879 86.172726 167.408375 87.444992 162.513385 87.444992 L 157.790906 87.444992 Z M 157.790906 97.752503 " stroke="#808080" stroke-width="4.528711" stroke-opacity="1" stroke-miterlimit="4"/></g><g fill="#ffffff" fill-opacity="1"><g transform="translate(1.129393, 19.408181)"><g><path d="M 1.199219 0 L 3.46875 0 L 3.46875 -3.109375 L 4.964844 -3.109375 L 6.75 0 L 9.375 0 L 7.304688 -3.46875 C 8.503906 -3.996094 9.203125 -5.078125 9.203125 -6.546875 C 9.203125 -8.675781 7.746094 -9.988281 5.464844 -9.988281 L 1.199219 -9.988281 Z M 3.4375 -5.023438 L 3.4375 -8.046875 L 5.164062 -8.046875 C 6.277344 -8.046875 6.90625 -7.503906 6.90625 -6.535156 C 6.90625 -5.5625 6.277344 -5.023438 5.164062 -5.023438 Z M 3.4375 -5.023438 "/></g></g></g><g fill="#ffffff" fill-opacity="1"><g transform="translate(10.601547, 19.408181)"><g><path d="M 4.621094 0.199219 C 6.464844 0.199219 7.917969 -0.742188 8.574219 -2.324219 L 6.378906 -2.324219 C 6.019531 -1.828125 5.378906 -1.539062 4.664062 -1.539062 C 3.679688 -1.539062 2.910156 -2.097656 2.710938 -3.125 L 8.71875 -3.125 C 8.84375 -5.863281 7.21875 -7.691406 4.652344 -7.691406 C 2.226562 -7.691406 0.554688 -6.078125 0.554688 -3.753906 C 0.554688 -1.414062 2.210938 0.199219 4.621094 0.199219 Z M 2.726562 -4.496094 C 2.96875 -5.40625 3.710938 -5.964844 4.664062 -5.964844 C 5.664062 -5.964844 6.378906 -5.40625 6.621094 -4.496094 Z M 2.726562 -4.496094 "/></g></g></g><g fill="#ffffff" fill-opacity="1"><g transform="translate(19.289104, 19.408181)"><g><path d="M 4.652344 0.199219 C 6.761719 0.199219 8.347656 -1.042969 8.746094 -3.011719 L 6.632812 -3.011719 C 6.335938 -2.195312 5.59375 -1.667969 4.679688 -1.667969 C 3.507812 -1.667969 2.695312 -2.523438 2.695312 -3.753906 C 2.695312 -4.980469 3.507812 -5.835938 4.679688 -5.835938 C 5.535156 -5.835938 6.234375 -5.378906 6.589844 -4.621094 L 8.675781 -4.621094 C 8.332031 -6.476562 6.734375 -7.691406 4.652344 -7.691406 C 2.253906 -7.691406 0.554688 -6.050781 0.554688 -3.753906 C 0.554688 -1.441406 2.238281 0.199219 4.652344 0.199219 Z M 4.652344 0.199219 "/></g></g></g><g fill="#ffffff" fill-opacity="1"><g transform="translate(27.990927, 19.408181)"><g><path d="M 1.113281 2.851562 L 2.125 2.851562 C 3.867188 2.851562 4.59375 2.425781 5.207031 0.882812 L 8.546875 -7.492188 L 6.21875 -7.492188 L 5.222656 -4.765625 L 4.535156 -2.851562 L 2.523438 -7.492188 L 0.128906 -7.492188 L 3.496094 -0.242188 L 3.410156 0.015625 C 3.152344 0.757812 2.851562 0.984375 1.96875 0.984375 L 1.113281 0.984375 Z M 1.113281 2.851562 "/></g></g></g><path stroke-linecap="butt" transform="matrix(0.725806, 0, 0, 0.725806, 36.653132, 4.721103)" fill="none" stroke-linejoin="miter" d="M 6.387282 19.274883 C 9.293532 19.274883 11.467838 17.568806 12.016796 14.86707 L 9.115928 14.86707 C 8.701518 15.981133 7.684331 16.707695 6.424956 16.707695 C 4.821136 16.707695 3.701692 15.529049 3.701692 13.844501 C 3.701692 12.15457 4.821136 10.986688 6.424956 10.986688 C 7.603602 10.986688 8.56697 11.610994 9.051345 12.649709 L 11.914539 12.649709 C 11.44631 10.098667 9.250477 8.435646 6.387282 8.435646 C 3.093532 8.435646 0.76315 10.690681 0.76315 13.844501 C 0.76315 17.019848 3.077386 19.274883 6.387282 19.274883 Z M 16.87131 19.194153 C 18.399782 19.194153 19.653775 18.709778 20.536414 17.805612 L 20.870095 19.000403 L 23.087456 19.000403 L 23.087456 12.805785 C 23.087456 10.082521 21.246831 8.435646 18.162977 8.435646 C 15.54197 8.435646 13.814366 9.68964 13.437629 11.923146 L 16.300824 11.923146 C 16.478428 11.201966 17.226518 10.706827 18.184504 10.706827 C 19.357768 10.706827 20.16506 11.37957 20.16506 12.396758 L 20.16506 12.864987 L 16.440754 12.864987 C 14.304122 12.864987 12.931727 14.097452 12.931727 15.997278 C 12.931727 17.983216 14.438671 19.194153 16.87131 19.194153 Z M 15.870268 15.884258 C 15.870268 15.179223 16.4569 14.72714 17.361067 14.72714 L 20.181206 14.72714 C 20.127386 16.121063 19.045616 17.057522 17.554817 17.057522 C 16.537629 17.057522 15.870268 16.589292 15.870268 15.884258 Z M 29.039886 19.274883 C 31.822352 19.274883 33.512282 18.058563 33.512282 16.099535 C 33.512282 14.414987 32.252907 13.333216 29.707248 12.827313 C 27.94197 12.472105 27.393011 12.18148 27.393011 11.551792 C 27.393011 10.949015 27.94197 10.593806 28.824609 10.593806 C 29.82565 10.593806 30.43381 11.040508 30.493011 11.826271 L 33.334678 11.826271 C 33.194748 9.651966 31.585546 8.435646 28.846136 8.435646 C 26.079817 8.435646 24.513671 9.555091 24.513671 11.551792 C 24.513671 13.257869 25.686935 14.275056 28.313324 14.748667 C 29.900998 15.023146 30.568359 15.437556 30.568359 16.08339 C 30.568359 16.686167 30.0194 17.057522 29.07756 17.057522 C 27.985025 17.057522 27.312282 16.530091 27.296136 15.690508 L 24.373741 15.690508 C 24.373741 17.843285 26.219748 19.274883 29.039886 19.274883 Z M 35.013845 19.000403 L 37.995442 19.000403 L 37.995442 13.591549 C 37.995442 11.966202 38.894227 10.986688 40.266623 10.986688 C 41.536762 10.986688 42.30638 11.847799 42.30638 13.354744 L 42.30638 19.000403 L 45.287977 19.000403 L 45.287977 13.064119 C 45.287977 10.200924 43.678775 8.435646 41.014713 8.435646 C 39.852213 8.435646 38.775824 8.790855 37.995442 9.490508 L 37.995442 4.496063 L 35.013845 4.496063 Z M 35.013845 19.000403 " stroke="#ffffff" stroke-width="1.127" stroke-opacity="1" stroke-miterlimit="4"/><g fill="#008000" fill-opacity="1"><g transform="translate(36.653132, 18.511426)"><g><path d="M 4.636719 0.199219 C 6.742188 0.199219 8.320312 -1.039062 8.71875 -3 L 6.613281 -3 C 6.316406 -2.191406 5.578125 -1.664062 4.667969 -1.664062 C 3.5 -1.664062 2.6875 -2.519531 2.6875 -3.742188 C 2.6875 -4.964844 3.5 -5.816406 4.667969 -5.816406 C 5.519531 -5.816406 6.214844 -5.363281 6.574219 -4.609375 L 8.648438 -4.609375 C 8.308594 -6.457031 6.714844 -7.667969 4.636719 -7.667969 C 2.246094 -7.667969 0.554688 -6.03125 0.554688 -3.742188 C 0.554688 -1.4375 2.234375 0.199219 4.636719 0.199219 Z M 4.636719 0.199219 "/></g></g></g><g fill="#008000" fill-opacity="1"><g transform="translate(45.327909, 18.511426)"><g><path d="M 3.570312 0.140625 C 4.679688 0.140625 5.589844 -0.214844 6.230469 -0.867188 L 6.472656 0 L 8.082031 0 L 8.082031 -4.496094 C 8.082031 -6.472656 6.742188 -7.667969 4.507812 -7.667969 C 2.601562 -7.667969 1.351562 -6.757812 1.082031 -5.136719 L 3.15625 -5.136719 C 3.285156 -5.660156 3.828125 -6.015625 4.523438 -6.015625 C 5.378906 -6.015625 5.960938 -5.535156 5.960938 -4.792969 L 5.960938 -4.453125 L 3.257812 -4.453125 C 1.707031 -4.453125 0.710938 -3.554688 0.710938 -2.175781 C 0.710938 -0.738281 1.808594 0.140625 3.570312 0.140625 Z M 2.84375 -2.261719 C 2.84375 -2.773438 3.273438 -3.101562 3.925781 -3.101562 L 5.976562 -3.101562 C 5.933594 -2.089844 5.148438 -1.410156 4.070312 -1.410156 C 3.328125 -1.410156 2.84375 -1.75 2.84375 -2.261719 Z M 2.84375 -2.261719 "/></g></g></g><g fill="#008000" fill-opacity="1"><g transform="translate(53.775141, 18.511426)"><g><path d="M 3.953125 0.199219 C 5.976562 0.199219 7.199219 -0.683594 7.199219 -2.105469 C 7.199219 -3.328125 6.289062 -4.109375 4.4375 -4.480469 C 3.15625 -4.738281 2.761719 -4.949219 2.761719 -5.40625 C 2.761719 -5.847656 3.15625 -6.101562 3.796875 -6.101562 C 4.523438 -6.101562 4.964844 -5.777344 5.007812 -5.207031 L 7.070312 -5.207031 C 6.96875 -6.785156 5.804688 -7.667969 3.8125 -7.667969 C 1.808594 -7.667969 0.667969 -6.855469 0.667969 -5.40625 C 0.667969 -4.167969 1.523438 -3.429688 3.429688 -3.085938 C 4.582031 -2.886719 5.0625 -2.589844 5.0625 -2.121094 C 5.0625 -1.679688 4.667969 -1.410156 3.984375 -1.410156 C 3.1875 -1.410156 2.703125 -1.792969 2.6875 -2.402344 L 0.570312 -2.402344 C 0.570312 -0.839844 1.90625 0.199219 3.953125 0.199219 Z M 3.953125 0.199219 "/></g></g></g><g fill="#008000" fill-opacity="1"><g transform="translate(60.985127, 18.511426)"><g><path d="M 1.082031 0 L 3.242188 0 L 3.242188 -3.925781 C 3.242188 -5.105469 3.898438 -5.816406 4.894531 -5.816406 C 5.816406 -5.816406 6.375 -5.191406 6.375 -4.097656 L 6.375 0 L 8.535156 0 L 8.535156 -4.308594 C 8.535156 -6.386719 7.367188 -7.667969 5.433594 -7.667969 C 4.59375 -7.667969 3.8125 -7.410156 3.242188 -6.898438 L 3.242188 -10.527344 L 1.082031 -10.527344 Z M 1.082031 0 "/></g></g></g><g clip-path="url(#7ef4f8de83)"><path fill="#ffffff" d="M 69.273438 2.902344 C 69.597656 2.902344 69.90625 2.964844 70.207031 3.089844 C 70.503906 3.210938 70.765625 3.386719 70.996094 3.617188 C 71.222656 3.84375 71.398438 4.105469 71.523438 4.40625 C 71.644531 4.703125 71.707031 5.011719 71.707031 5.335938 C 71.707031 5.660156 71.644531 5.96875 71.523438 6.265625 C 71.398438 6.566406 71.222656 6.828125 70.996094 7.054688 C 70.765625 7.285156 70.503906 7.460938 70.207031 7.582031 C 69.90625 7.707031 69.597656 7.769531 69.273438 7.769531 C 68.953125 7.769531 68.640625 7.707031 68.34375 7.582031 C 68.046875 7.460938 67.78125 7.285156 67.554688 7.054688 C 67.328125 6.828125 67.152344 6.566406 67.027344 6.265625 C 66.902344 5.96875 66.84375 5.660156 66.84375 5.335938 C 66.84375 5.011719 66.902344 4.703125 67.027344 4.40625 C 67.152344 4.105469 67.328125 3.84375 67.554688 3.617188 C 67.78125 3.386719 68.046875 3.210938 68.34375 3.089844 C 68.640625 2.964844 68.953125 2.902344 69.273438 2.902344 Z M 70.511719 5.242188 C 70.511719 5.160156 70.46875 5.121094 70.386719 5.121094 L 70.265625 5.121094 C 70.265625 5.097656 70.269531 5.078125 70.269531 5.054688 C 70.269531 5.03125 70.269531 5.007812 70.269531 4.988281 C 70.269531 4.976562 70.269531 4.964844 70.269531 4.957031 L 70.269531 4.921875 L 70.386719 4.921875 C 70.46875 4.921875 70.511719 4.882812 70.511719 4.800781 C 70.511719 4.71875 70.46875 4.675781 70.386719 4.675781 L 70.234375 4.675781 C 70.183594 4.480469 70.074219 4.324219 69.90625 4.210938 C 69.742188 4.101562 69.523438 4.046875 69.25 4.046875 C 69.09375 4.046875 68.933594 4.046875 68.773438 4.046875 C 68.65625 4.046875 68.554688 4.089844 68.472656 4.175781 C 68.386719 4.257812 68.347656 4.359375 68.347656 4.476562 L 68.347656 4.675781 L 68.164062 4.675781 C 68.082031 4.675781 68.039062 4.71875 68.039062 4.800781 C 68.039062 4.882812 68.082031 4.921875 68.164062 4.921875 L 68.347656 4.921875 L 68.347656 5.121094 L 68.164062 5.121094 C 68.082031 5.121094 68.039062 5.160156 68.039062 5.242188 C 68.039062 5.324219 68.082031 5.367188 68.164062 5.367188 L 68.347656 5.367188 L 68.347656 6.339844 C 68.347656 6.417969 68.375 6.484375 68.429688 6.539062 C 68.484375 6.59375 68.550781 6.621094 68.628906 6.621094 C 68.707031 6.621094 68.773438 6.59375 68.828125 6.539062 C 68.882812 6.484375 68.910156 6.417969 68.910156 6.339844 L 68.910156 5.96875 L 69.226562 5.96875 C 69.339844 5.972656 69.453125 5.957031 69.566406 5.933594 C 69.664062 5.910156 69.761719 5.871094 69.847656 5.816406 C 69.933594 5.769531 70.003906 5.703125 70.066406 5.628906 C 70.132812 5.550781 70.179688 5.460938 70.210938 5.367188 L 70.386719 5.367188 C 70.46875 5.367188 70.511719 5.324219 70.511719 5.242188 Z M 70.511719 5.242188 " fill-opacity="1" fill-rule="nonzero"/></g><path fill="#ffffff" d="M 69.703125 4.949219 C 69.703125 4.960938 69.703125 4.972656 69.703125 4.988281 C 69.703125 5.015625 69.703125 5.039062 69.703125 5.0625 C 69.699219 5.085938 69.699219 5.109375 69.695312 5.132812 L 68.90625 5.132812 L 68.90625 4.910156 C 69.171875 4.910156 69.4375 4.910156 69.699219 4.910156 C 69.703125 4.921875 69.703125 4.933594 69.703125 4.949219 Z M 69.703125 4.949219 " fill-opacity="1" fill-rule="nonzero"/><path fill="#ffffff" d="M 69.636719 4.675781 L 68.90625 4.675781 L 68.90625 4.453125 C 68.949219 4.453125 68.988281 4.453125 69.03125 4.453125 C 69.085938 4.453125 69.140625 4.457031 69.199219 4.460938 C 69.257812 4.464844 69.316406 4.472656 69.371094 4.488281 C 69.425781 4.503906 69.476562 4.527344 69.527344 4.554688 C 69.574219 4.585938 69.609375 4.628906 69.636719 4.675781 Z M 69.636719 4.675781 " fill-opacity="1" fill-rule="nonzero"/><path fill="#ffffff" d="M 68.90625 5.367188 L 69.621094 5.367188 C 69.59375 5.414062 69.558594 5.453125 69.515625 5.484375 C 69.472656 5.515625 69.425781 5.539062 69.378906 5.554688 C 69.324219 5.570312 69.269531 5.578125 69.214844 5.582031 C 69.15625 5.585938 69.09375 5.589844 69.03125 5.589844 C 68.988281 5.589844 68.949219 5.589844 68.90625 5.589844 Z M 68.90625 5.367188 " fill-opacity="1" fill-rule="nonzero"/></svg>